  0
SECTION
  2
HEADER
  9
$ACADVER
  1
AC1014
  9
$HANDSEED
  5
FFFF
  9
$MEASUREMENT
 70
     1
  0
ENDSEC
  0
SECTION
  2
TABLES
  0
TABLE
  2
VPORT
  5
8
330
0
100
AcDbSymbolTable
 70
     4
  0
VPORT
  5
2E
330
8
100
AcDbSymbolTableRecord
100
AcDbViewportTableRecord
  2
*ACTIVE
 70
     0
 10
0.0
 20
0.0
 11
1.0
 21
1.0
 12
210.0
 22
148.5
 13
0.0
 23
0.0
 14
10.0
 24
10.0
 15
10.0
 25
10.0
 16
0.0
 26
0.0
 36
1.0
 17
0.0
 27
0.0
 37
0.0
 40
341.0
 41
1.24
 42
50.0
 43
0.0
 44
0.0
 50
0.0
 51
0.0
 71
     0
 72
   100
 73
     1
 74
     3
 75
     0
 76
     0
 77
     0
 78
     0
  0
ENDTAB
  0
TABLE
  2
LTYPE
  5
5
330
0
100
AcDbSymbolTable
 70
     1
  0
LTYPE
  5
14
330
5
100
AcDbSymbolTableRecord
100
AcDbLinetypeTableRecord
  2
BYBLOCK
 70
     0
  3

 72
    65
 73
     0
 40
0.0
  0
LTYPE
  5
15
330
5
100
AcDbSymbolTableRecord
100
AcDbLinetypeTableRecord
  2
BYLAYER
 70
     0
  3

 72
    65
 73
     0
 40
0.0
  0
LTYPE
  5
16
330
5
100
AcDbSymbolTableRecord
100
AcDbLinetypeTableRecord
  2
CONTINUOUS
 70
     0
  3
Solid line
 72
    65
 73
     0
 40
0.0
  0
ENDTAB
  0
TABLE
  2
LAYER
  5
2
100
AcDbSymbolTable
 70
3
  0
LAYER
  5
50
100
AcDbSymbolTableRecord
100
AcDbLayerTableRecord
  2
0
 70
0
  6
CONTINUOUS
  0
LAYER
  5
51
100
AcDbSymbolTableRecord
100
AcDbLayerTableRecord
  2
Layer_1
 70
0
  6
CONTINUOUS
  0
LAYER
  5
52
100
AcDbSymbolTableRecord
100
AcDbLayerTableRecord
  2
newlayer
 70
0
  6
CONTINUOUS
  0
ENDTAB
  0
TABLE
  2
STYLE
  5
3
330
0
100
AcDbSymbolTable
 70
     1
  0
STYLE
  5
11
330
3
100
AcDbSymbolTableRecord
100
AcDbTextStyleTableRecord
  2
STANDARD
 70
     0
 40
0.0
 41
1.0
 50
0.0
 71
     0
 42
2.5
  3
txt
  4

  0
ENDTAB
  0
TABLE
  2
VIEW
  5
6
330
0
100
AcDbSymbolTable
 70
     0
  0
ENDTAB
  0
TABLE
  2
UCS
  5
7
330
0
100
AcDbSymbolTable
 70
     0
  0
ENDTAB
  0
TABLE
  2
APPID
  5
9
330
0
100
AcDbSymbolTable
 70
     2
  0
APPID
  5
12
330
9
100
AcDbSymbolTableRecord
100
AcDbRegAppTableRecord
  2
ACAD
 70
     0
  0
ENDTAB
  0
TABLE
  2
DIMSTYLE
  5
A
330
0
100
AcDbSymbolTable
 70
     1
  0
DIMSTYLE
105
27
330
A
100
AcDbSymbolTableRecord
100
AcDbDimStyleTableRecord
  2
ISO-25
 70
     0
  3

  4

  5

  6

  7

 40
1.0
 41
2.5
 42
0.625
 43
3.75
 44
1.25
 45
0.0
 46
0.0
 47
0.0
 48
0.0
140
2.5
141
2.5
142
0.0
143
0.03937007874016
144
1.0
145
0.0
146
1.0
147
0.625
 71
     0
 72
     0
 73
     0
 74
     0
 75
     0
 76
     0
 77
     1
 78
     8
170
     0
171
     3
172
     1
173
     0
174
     0
175
     0
176
     0
177
     0
178
     0
270
     2
271
     2
272
     2
273
     2
274
     3
340
11
275
     0
280
     0
281
     0
282
     0
283
     0
284
     8
285
     0
286
     0
287
     3
288
     0
  0
ENDTAB
  0
TABLE
  2
BLOCK_RECORD
  5
1
330
0
100
AcDbSymbolTable
 70
     1
  0
BLOCK_RECORD
  5
1F
330
1
100
AcDbSymbolTableRecord
100
AcDbBlockTableRecord
  2
*MODEL_SPACE
  0
BLOCK_RECORD
  5
1B
330
1
100
AcDbSymbolTableRecord
100
AcDbBlockTableRecord
  2
*PAPER_SPACE
  0
ENDTAB
  0
ENDSEC
  0
SECTION
  2
BLOCKS
  0
BLOCK
  5
20
330
1F
100
AcDbEntity
  8
0
100
AcDbBlockBegin
  2
*MODEL_SPACE
 70
     0
 10
0.0
 20
0.0
 30
0.0
  3
*MODEL_SPACE
  1

  0
ENDBLK
  5
21
330
1F
100
AcDbEntity
  8
0
100
AcDbBlockEnd
  0
BLOCK
  5
1C
330
1B
100
AcDbEntity
 67
     1
  8
0
100
AcDbBlockBegin
  2
*PAPER_SPACE
  1

  0
ENDBLK
  5
1D
330
1B
100
AcDbEntity
 67
     1
  8
0
100
AcDbBlockEnd
  0
ENDSEC
  0
SECTION
  2
ENTITIES
  0
LWPOLYLINE
  5
100
100
AcDbEntity
  8
newlayer
 62
7
100
AcDbPolyline
 90
33
 70
0
 10
95.499992
 20
81.400001
 30
0.0
 10
95.187914
 20
81.430735
 30
0.0
 10
94.887714
 20
81.521780
 30
0.0
 10
94.611108
 20
81.669636
 30
0.0
 10
94.368595
 20
81.868631
 30
0.0
 10
94.169597
 20
82.111088
 30
0.0
 10
94.021800
 20
82.387694
 30
0.0
 10
93.930699
 20
82.687837
 30
0.0
 10
93.899993
 20
82.999975
 30
0.0
 10
93.930699
 20
83.312141
 30
0.0
 10
94.021800
 20
83.612284
 30
0.0
 10
94.169597
 20
83.888890
 30
0.0
 10
94.368595
 20
84.131348
 30
0.0
 10
94.611108
 20
84.330342
 30
0.0
 10
94.887714
 20
84.478199
 30
0.0
 10
95.187914
 20
84.569244
 30
0.0
 10
95.499992
 20
84.599978
 30
0.0
 10
95.812130
 20
84.569244
 30
0.0
 10
96.112302
 20
84.478199
 30
0.0
 10
96.388908
 20
84.330342
 30
0.0
 10
96.631368
 20
84.131348
 30
0.0
 10
96.830363
 20
83.888890
 30
0.0
 10
96.978216
 20
83.612284
 30
0.0
 10
97.069264
 20
83.312141
 30
0.0
 10
97.099998
 20
82.999975
 30
0.0
 10
97.069264
 20
82.687837
 30
0.0
 10
96.978216
 20
82.387694
 30
0.0
 10
96.830363
 20
82.111088
 30
0.0
 10
96.631368
 20
81.868631
 30
0.0
 10
96.388908
 20
81.669636
 30
0.0
 10
96.112302
 20
81.521780
 30
0.0
 10
95.812130
 20
81.430735
 30
0.0
 10
95.499992
 20
81.400001
 30
0.0
  0
LWPOLYLINE
  5
101
100
AcDbEntity
  8
newlayer
 62
7
100
AcDbPolyline
 90
33
 70
0
 10
15.500007
 20
81.400001
 30
0.0
 10
15.187906
 20
81.430735
 30
0.0
 10
14.887706
 20
81.521780
 30
0.0
 10
14.611106
 20
81.669636
 30
0.0
 10
14.368606
 20
81.868631
 30
0.0
 10
14.169606
 20
82.111088
 30
0.0
 10
14.021806
 20
82.387694
 30
0.0
 10
13.930705
 20
82.687837
 30
0.0
 10
13.900007
 20
82.999975
 30
0.0
 10
13.930705
 20
83.312141
 30
0.0
 10
14.021806
 20
83.612284
 30
0.0
 10
14.169606
 20
83.888890
 30
0.0
 10
14.368606
 20
84.131348
 30
0.0
 10
14.611106
 20
84.330342
 30
0.0
 10
14.887706
 20
84.478199
 30
0.0
 10
15.187906
 20
84.569244
 30
0.0
 10
15.500007
 20
84.599978
 30
0.0
 10
15.812105
 20
84.569244
 30
0.0
 10
16.112305
 20
84.478199
 30
0.0
 10
16.388906
 20
84.330342
 30
0.0
 10
16.631408
 20
84.131348
 30
0.0
 10
16.830405
 20
83.888890
 30
0.0
 10
16.978205
 20
83.612284
 30
0.0
 10
17.069307
 20
83.312141
 30
0.0
 10
17.100007
 20
82.999975
 30
0.0
 10
17.069307
 20
82.687837
 30
0.0
 10
16.978205
 20
82.387694
 30
0.0
 10
16.830405
 20
82.111088
 30
0.0
 10
16.631408
 20
81.868631
 30
0.0
 10
16.388906
 20
81.669636
 30
0.0
 10
16.112305
 20
81.521780
 30
0.0
 10
15.812105
 20
81.430735
 30
0.0
 10
15.500007
 20
81.400001
 30
0.0
  0
LWPOLYLINE
  5
102
100
AcDbEntity
  8
newlayer
 62
7
100
AcDbPolyline
 90
33
 70
0
 10
95.499992
 20
143.399990
 30
0.0
 10
95.187914
 20
143.430696
 30
0.0
 10
94.887714
 20
143.521797
 30
0.0
 10
94.611108
 20
143.669597
 30
0.0
 10
94.368595
 20
143.868592
 30
0.0
 10
94.169597
 20
144.111077
 30
0.0
 10
94.021800
 20
144.387683
 30
0.0
 10
93.930699
 20
144.687883
 30
0.0
 10
93.899993
 20
144.999992
 30
0.0
 10
93.930699
 20
145.312102
 30
0.0
 10
94.021800
 20
145.612302
 30
0.0
 10
94.169597
 20
145.888879
 30
0.0
 10
94.368595
 20
146.131393
 30
0.0
 10
94.611108
 20
146.330388
 30
0.0
 10
94.887714
 20
146.478188
 30
0.0
 10
95.187914
 20
146.569289
 30
0.0
 10
95.499992
 20
146.599995
 30
0.0
 10
95.812130
 20
146.569289
 30
0.0
 10
96.112302
 20
146.478188
 30
0.0
 10
96.388908
 20
146.330388
 30
0.0
 10
96.631368
 20
146.131393
 30
0.0
 10
96.830363
 20
145.888879
 30
0.0
 10
96.978216
 20
145.612302
 30
0.0
 10
97.069264
 20
145.312102
 30
0.0
 10
97.099998
 20
144.999992
 30
0.0
 10
97.069264
 20
144.687883
 30
0.0
 10
96.978216
 20
144.387683
 30
0.0
 10
96.830363
 20
144.111077
 30
0.0
 10
96.631368
 20
143.868592
 30
0.0
 10
96.388908
 20
143.669597
 30
0.0
 10
96.112302
 20
143.521797
 30
0.0
 10
95.812130
 20
143.430696
 30
0.0
 10
95.499992
 20
143.399990
 30
0.0
  0
LWPOLYLINE
  5
103
100
AcDbEntity
  8
newlayer
 62
7
100
AcDbPolyline
 90
33
 70
0
 10
15.500007
 20
143.399990
 30
0.0
 10
15.187906
 20
143.430696
 30
0.0
 10
14.887706
 20
143.521797
 30
0.0
 10
14.611106
 20
143.669597
 30
0.0
 10
14.368606
 20
143.868592
 30
0.0
 10
14.169606
 20
144.111077
 30
0.0
 10
14.021806
 20
144.387683
 30
0.0
 10
13.930705
 20
144.687883
 30
0.0
 10
13.900007
 20
144.999992
 30
0.0
 10
13.930705
 20
145.312102
 30
0.0
 10
14.021806
 20
145.612302
 30
0.0
 10
14.169606
 20
145.888879
 30
0.0
 10
14.368606
 20
146.131393
 30
0.0
 10
14.611106
 20
146.330388
 30
0.0
 10
14.887706
 20
146.478188
 30
0.0
 10
15.187906
 20
146.569289
 30
0.0
 10
15.500007
 20
146.599995
 30
0.0
 10
15.812105
 20
146.569289
 30
0.0
 10
16.112305
 20
146.478188
 30
0.0
 10
16.388906
 20
146.330388
 30
0.0
 10
16.631408
 20
146.131393
 30
0.0
 10
16.830405
 20
145.888879
 30
0.0
 10
16.978205
 20
145.612302
 30
0.0
 10
17.069307
 20
145.312102
 30
0.0
 10
17.100007
 20
144.999992
 30
0.0
 10
17.069307
 20
144.687883
 30
0.0
 10
16.978205
 20
144.387683
 30
0.0
 10
16.830405
 20
144.111077
 30
0.0
 10
16.631408
 20
143.868592
 30
0.0
 10
16.388906
 20
143.669597
 30
0.0
 10
16.112305
 20
143.521797
 30
0.0
 10
15.812105
 20
143.430696
 30
0.0
 10
15.500007
 20
143.399990
 30
0.0
  0
SPLINE
  5
104
100
AcDbEntity
  8
newlayer
 62
7
100
AcDbSpline
 70
8
 71
3
 72
8
 73
4
 74
0
 40
0
 40
0
 40
0
 40
0
 40
1
 40
1
 40
1
 40
1
 10
41.816672
 20
18.427728
 30
0.0
 10
41.816664
 20
16.632808
 30
0.0
 10
40.361592
 20
15.177741
 30
0.0
 10
38.566671
 20
15.177742
 30
0.0
  0
SPLINE
  5
105
100
AcDbEntity
  8
newlayer
 62
7
100
AcDbSpline
 70
8
 71
3
 72
8
 73
4
 74
0
 40
0
 40
0
 40
0
 40
0
 40
1
 40
1
 40
1
 40
1
 10
38.566671
 20
15.177742
 30
0.0
 10
36.771751
 20
15.177741
 30
0.0
 10
35.316678
 20
16.632808
 30
0.0
 10
35.316671
 20
18.427728
 30
0.0
  0
SPLINE
  5
106
100
AcDbEntity
  8
newlayer
 62
7
100
AcDbSpline
 70
8
 71
3
 72
8
 73
4
 74
0
 40
0
 40
0
 40
0
 40
0
 40
1
 40
1
 40
1
 40
1
 10
35.316671
 20
18.427728
 30
0.0
 10
35.316667
 20
19.289684
 30
0.0
 10
35.659075
 20
20.116339
 30
0.0
 10
36.268569
 20
20.725835
 30
0.0
  0
SPLINE
  5
107
100
AcDbEntity
  8
newlayer
 62
7
100
AcDbSpline
 70
8
 71
3
 72
8
 73
4
 74
0
 40
0
 40
0
 40
0
 40
0
 40
1
 40
1
 40
1
 40
1
 10
36.268569
 20
20.725835
 30
0.0
 10
36.878063
 20
21.335331
 30
0.0
 10
37.704715
 20
21.677743
 30
0.0
 10
38.566671
 20
21.677743
 30
0.0
  0
SPLINE
  5
108
100
AcDbEntity
  8
newlayer
 62
7
100
AcDbSpline
 70
8
 71
3
 72
8
 73
4
 74
0
 40
0
 40
0
 40
0
 40
0
 40
1
 40
1
 40
1
 40
1
 10
38.566671
 20
21.677743
 30
0.0
 10
39.428628
 20
21.677743
 30
0.0
 10
40.255280
 20
21.335331
 30
0.0
 10
40.864774
 20
20.725835
 30
0.0
  0
SPLINE
  5
109
100
AcDbEntity
  8
newlayer
 62
7
100
AcDbSpline
 70
8
 71
3
 72
8
 73
4
 74
0
 40
0
 40
0
 40
0
 40
0
 40
1
 40
1
 40
1
 40
1
 10
40.864774
 20
20.725835
 30
0.0
 10
41.474268
 20
20.116339
 30
0.0
 10
41.816676
 20
19.289684
 30
0.0
 10
41.816672
 20
18.427728
 30
0.0
  0
LWPOLYLINE
  5
10a
100
AcDbEntity
  8
newlayer
 62
7
100
AcDbPolyline
 90
5
 70
1
 10
19.750006
 20
63.664451
 30
0.0
 10
91.250005
 20
63.664451
 30
0.0
 10
91.250005
 20
39.164429
 30
0.0
 10
19.750006
 20
39.164429
 30
0.0
 10
19.750006
 20
63.664451
 30
0.0
  0
SPLINE
  5
10b
100
AcDbEntity
  8
newlayer
 62
7
100
AcDbSpline
 70
8
 71
3
 72
8
 73
4
 74
0
 40
0
 40
0
 40
0
 40
0
 40
1
 40
1
 40
1
 40
1
 10
75.683336
 20
18.427728
 30
0.0
 10
75.683328
 20
16.632808
 30
0.0
 10
74.228256
 20
15.177741
 30
0.0
 10
72.433335
 20
15.177742
 30
0.0
  0
SPLINE
  5
10c
100
AcDbEntity
  8
newlayer
 62
7
100
AcDbSpline
 70
8
 71
3
 72
8
 73
4
 74
0
 40
0
 40
0
 40
0
 40
0
 40
1
 40
1
 40
1
 40
1
 10
72.433335
 20
15.177742
 30
0.0
 10
70.638415
 20
15.177741
 30
0.0
 10
69.183342
 20
16.632808
 30
0.0
 10
69.183335
 20
18.427728
 30
0.0
  0
SPLINE
  5
10d
100
AcDbEntity
  8
newlayer
 62
7
100
AcDbSpline
 70
8
 71
3
 72
8
 73
4
 74
0
 40
0
 40
0
 40
0
 40
0
 40
1
 40
1
 40
1
 40
1
 10
69.183335
 20
18.427728
 30
0.0
 10
69.183331
 20
19.289684
 30
0.0
 10
69.525739
 20
20.116339
 30
0.0
 10
70.135233
 20
20.725835
 30
0.0
  0
SPLINE
  5
10e
100
AcDbEntity
  8
newlayer
 62
7
100
AcDbSpline
 70
8
 71
3
 72
8
 73
4
 74
0
 40
0
 40
0
 40
0
 40
0
 40
1
 40
1
 40
1
 40
1
 10
70.135233
 20
20.725835
 30
0.0
 10
70.744726
 20
21.335331
 30
0.0
 10
71.571379
 20
21.677743
 30
0.0
 10
72.433335
 20
21.677743
 30
0.0
  0
SPLINE
  5
10f
100
AcDbEntity
  8
newlayer
 62
7
100
AcDbSpline
 70
8
 71
3
 72
8
 73
4
 74
0
 40
0
 40
0
 40
0
 40
0
 40
1
 40
1
 40
1
 40
1
 10
72.433335
 20
21.677743
 30
0.0
 10
73.295291
 20
21.677743
 30
0.0
 10
74.121944
 20
21.335331
 30
0.0
 10
74.731438
 20
20.725835
 30
0.0
  0
SPLINE
  5
110
100
AcDbEntity
  8
newlayer
 62
7
100
AcDbSpline
 70
8
 71
3
 72
8
 73
4
 74
0
 40
0
 40
0
 40
0
 40
0
 40
1
 40
1
 40
1
 40
1
 10
74.731438
 20
20.725835
 30
0.0
 10
75.340932
 20
20.116339
 30
0.0
 10
75.683340
 20
19.289684
 30
0.0
 10
75.683336
 20
18.427728
 30
0.0
  0
LWPOLYLINE
  5
111
100
AcDbEntity
  8
newlayer
 62
7
100
AcDbPolyline
 90
2
 70
1
 10
41.816672
 20
18.427728
 30
0.0
 10
41.816672
 20
18.427728
 30
0.0
  0
LWPOLYLINE
  5
112
100
AcDbEntity
  8
newlayer
 62
7
100
AcDbPolyline
 90
2
 70
1
 10
75.683336
 20
18.427728
 30
0.0
 10
75.683336
 20
18.427728
 30
0.0
  0
LWPOLYLINE
  5
113
100
AcDbEntity
  8
newlayer
 62
7
100
AcDbPolyline
 90
2
 70
0
 10
15.607894
 20
27.554089
 30
0.0
 10
15.607894
 20
23.405423
 30
0.0
  0
LWPOLYLINE
  5
114
100
AcDbEntity
  8
newlayer
 62
7
100
AcDbPolyline
 90
2
 70
0
 10
14.225005
 20
27.554089
 30
0.0
 10
16.990782
 20
27.554089
 30
0.0
  0
LWPOLYLINE
  5
115
100
AcDbEntity
  8
newlayer
 62
7
100
AcDbPolyline
 90
21
 70
0
 10
18.966338
 20
27.554089
 30
0.0
 10
18.571227
 20
27.356534
 30
0.0
 10
18.176116
 20
26.961423
 30
0.0
 10
17.978560
 20
26.566312
 30
0.0
 10
17.781005
 20
25.973645
 30
0.0
 10
17.781005
 20
24.985867
 30
0.0
 10
17.978560
 20
24.393200
 30
0.0
 10
18.176116
 20
23.998089
 30
0.0
 10
18.571227
 20
23.602978
 30
0.0
 10
18.966338
 20
23.405423
 30
0.0
 10
19.756560
 20
23.405423
 30
0.0
 10
20.151671
 20
23.602978
 30
0.0
 10
20.546782
 20
23.998089
 30
0.0
 10
20.744338
 20
24.393200
 30
0.0
 10
20.941894
 20
24.985867
 30
0.0
 10
20.941894
 20
25.973645
 30
0.0
 10
20.744338
 20
26.566312
 30
0.0
 10
20.546782
 20
26.961423
 30
0.0
 10
20.151671
 20
27.356534
 30
0.0
 10
19.756560
 20
27.554089
 30
0.0
 10
18.966338
 20
27.554089
 30
0.0
  0
LWPOLYLINE
  5
116
100
AcDbEntity
  8
newlayer
 62
7
100
AcDbPolyline
 90
21
 70
0
 10
23.312560
 20
27.554089
 30
0.0
 10
22.917449
 20
27.356534
 30
0.0
 10
22.522338
 20
26.961423
 30
0.0
 10
22.324782
 20
26.566312
 30
0.0
 10
22.127227
 20
25.973645
 30
0.0
 10
22.127227
 20
24.985867
 30
0.0
 10
22.324782
 20
24.393200
 30
0.0
 10
22.522338
 20
23.998089
 30
0.0
 10
22.917449
 20
23.602978
 30
0.0
 10
23.312560
 20
23.405423
 30
0.0
 10
24.102782
 20
23.405423
 30
0.0
 10
24.497894
 20
23.602978
 30
0.0
 10
24.893005
 20
23.998089
 30
0.0
 10
25.090560
 20
24.393200
 30
0.0
 10
25.288116
 20
24.985867
 30
0.0
 10
25.288116
 20
25.973645
 30
0.0
 10
25.090560
 20
26.566312
 30
0.0
 10
24.893005
 20
26.961423
 30
0.0
 10
24.497894
 20
27.356534
 30
0.0
 10
24.102782
 20
27.554089
 30
0.0
 10
23.312560
 20
27.554089
 30
0.0
  0
LWPOLYLINE
  5
117
100
AcDbEntity
  8
newlayer
 62
7
100
AcDbPolyline
 90
3
 70
0
 10
26.671005
 20
27.554089
 30
0.0
 10
26.671005
 20
23.405423
 30
0.0
 10
29.041671
 20
23.405423
 30
0.0
  0
LWPOLYLINE
  5
118
100
AcDbEntity
  8
newlayer
 62
7
100
AcDbPolyline
 90
2
 70
0
 10
62.061669
 20
11.425202
 30
0.0
 10
62.061669
 20
7.276536
 30
0.0
  0
LWPOLYLINE
  5
119
100
AcDbEntity
  8
newlayer
 62
7
100
AcDbPolyline
 90
2
 70
0
 10
63.642113
 20
11.425202
 30
0.0
 10
63.642113
 20
7.276536
 30
0.0
  0
LWPOLYLINE
  5
11a
100
AcDbEntity
  8
newlayer
 62
7
100
AcDbPolyline
 90
2
 70
0
 10
63.642113
 20
11.425202
 30
0.0
 10
66.407891
 20
7.276536
 30
0.0
  0
LWPOLYLINE
  5
11b
100
AcDbEntity
  8
newlayer
 62
7
100
AcDbPolyline
 90
2
 70
0
 10
66.407891
 20
11.425202
 30
0.0
 10
66.407891
 20
7.276536
 30
0.0
  0
LWPOLYLINE
  5
11c
100
AcDbEntity
  8
newlayer
 62
7
100
AcDbPolyline
 90
2
 70
0
 10
67.988335
 20
11.425202
 30
0.0
 10
67.988335
 20
7.276536
 30
0.0
  0
LWPOLYLINE
  5
11d
100
AcDbEntity
  8
newlayer
 62
7
100
AcDbPolyline
 90
12
 70
0
 10
67.988335
 20
11.425202
 30
0.0
 10
69.371224
 20
11.425202
 30
0.0
 10
69.963891
 20
11.227647
 30
0.0
 10
70.359002
 20
10.832536
 30
0.0
 10
70.556557
 20
10.437424
 30
0.0
 10
70.754113
 20
9.844758
 30
0.0
 10
70.754113
 20
8.856980
 30
0.0
 10
70.556557
 20
8.264313
 30
0.0
 10
70.359002
 20
7.869202
 30
0.0
 10
69.963891
 20
7.474091
 30
0.0
 10
69.371224
 20
7.276536
 30
0.0
 10
67.988335
 20
7.276536
 30
0.0
  0
LWPOLYLINE
  5
11e
100
AcDbEntity
  8
newlayer
 62
7
100
AcDbPolyline
 90
10
 70
0
 10
72.137002
 20
11.425202
 30
0.0
 10
72.137002
 20
8.461869
 30
0.0
 10
72.334557
 20
7.869202
 30
0.0
 10
72.729669
 20
7.474091
 30
0.0
 10
73.322335
 20
7.276536
 30
0.0
 10
73.717446
 20
7.276536
 30
0.0
 10
74.310113
 20
7.474091
 30
0.0
 10
74.705224
 20
7.869202
 30
0.0
 10
74.902780
 20
8.461869
 30
0.0
 10
74.902780
 20
11.425202
 30
0.0
  0
LWPOLYLINE
  5
11f
100
AcDbEntity
  8
newlayer
 62
7
100
AcDbPolyline
 90
18
 70
0
 10
79.249002
 20
10.437424
 30
0.0
 10
79.051446
 20
10.832536
 30
0.0
 10
78.656335
 20
11.227647
 30
0.0
 10
78.261224
 20
11.425202
 30
0.0
 10
77.471002
 20
11.425202
 30
0.0
 10
77.075891
 20
11.227647
 30
0.0
 10
76.680780
 20
10.832536
 30
0.0
 10
76.483224
 20
10.437424
 30
0.0
 10
76.285669
 20
9.844758
 30
0.0
 10
76.285669
 20
8.856980
 30
0.0
 10
76.483224
 20
8.264313
 30
0.0
 10
76.680780
 20
7.869202
 30
0.0
 10
77.075891
 20
7.474091
 30
0.0
 10
77.471002
 20
7.276536
 30
0.0
 10
78.261224
 20
7.276536
 30
0.0
 10
78.656335
 20
7.474091
 30
0.0
 10
79.051446
 20
7.869202
 30
0.0
 10
79.249002
 20
8.264313
 30
0.0
  0
LWPOLYLINE
  5
120
100
AcDbEntity
  8
newlayer
 62
7
100
AcDbPolyline
 90
2
 70
0
 10
81.422113
 20
11.425202
 30
0.0
 10
81.422113
 20
7.276536
 30
0.0
  0
LWPOLYLINE
  5
121
100
AcDbEntity
  8
newlayer
 62
7
100
AcDbPolyline
 90
2
 70
0
 10
80.039224
 20
11.425202
 30
0.0
 10
82.805002
 20
11.425202
 30
0.0
  0
LWPOLYLINE
  5
122
100
AcDbEntity
  8
newlayer
 62
7
100
AcDbPolyline
 90
20
 70
0
 10
81.662005
 20
26.961423
 30
0.0
 10
81.266894
 20
27.356534
 30
0.0
 10
80.674227
 20
27.554089
 30
0.0
 10
79.884005
 20
27.554089
 30
0.0
 10
79.291338
 20
27.356534
 30
0.0
 10
78.896227
 20
26.961423
 30
0.0
 10
78.896227
 20
26.566312
 30
0.0
 10
79.093782
 20
26.171200
 30
0.0
 10
79.291338
 20
25.973645
 30
0.0
 10
79.686449
 20
25.776089
 30
0.0
 10
80.871782
 20
25.380978
 30
0.0
 10
81.266894
 20
25.183423
 30
0.0
 10
81.464449
 20
24.985867
 30
0.0
 10
81.662005
 20
24.590756
 30
0.0
 10
81.662005
 20
23.998089
 30
0.0
 10
81.266894
 20
23.602978
 30
0.0
 10
80.674227
 20
23.405423
 30
0.0
 10
79.884005
 20
23.405423
 30
0.0
 10
79.291338
 20
23.602978
 30
0.0
 10
78.896227
 20
23.998089
 30
0.0
  0
LWPOLYLINE
  5
123
100
AcDbEntity
  8
newlayer
 62
7
100
AcDbPolyline
 90
2
 70
0
 10
83.835116
 20
27.554089
 30
0.0
 10
83.835116
 20
23.405423
 30
0.0
  0
LWPOLYLINE
  5
124
100
AcDbEntity
  8
newlayer
 62
7
100
AcDbPolyline
 90
2
 70
0
 10
82.452227
 20
27.554089
 30
0.0
 10
85.218005
 20
27.554089
 30
0.0
  0
LWPOLYLINE
  5
125
100
AcDbEntity
  8
newlayer
 62
7
100
AcDbPolyline
 90
2
 70
0
 10
87.193560
 20
27.554089
 30
0.0
 10
85.613116
 20
23.405423
 30
0.0
  0
LWPOLYLINE
  5
126
100
AcDbEntity
  8
newlayer
 62
7
100
AcDbPolyline
 90
2
 70
0
 10
87.193560
 20
27.554089
 30
0.0
 10
88.774005
 20
23.405423
 30
0.0
  0
LWPOLYLINE
  5
127
100
AcDbEntity
  8
newlayer
 62
7
100
AcDbPolyline
 90
2
 70
0
 10
86.205782
 20
24.788312
 30
0.0
 10
88.181338
 20
24.788312
 30
0.0
  0
LWPOLYLINE
  5
128
100
AcDbEntity
  8
newlayer
 62
7
100
AcDbPolyline
 90
2
 70
0
 10
90.552005
 20
27.554089
 30
0.0
 10
90.552005
 20
23.405423
 30
0.0
  0
LWPOLYLINE
  5
129
100
AcDbEntity
  8
newlayer
 62
7
100
AcDbPolyline
 90
2
 70
0
 10
89.169116
 20
27.554089
 30
0.0
 10
91.934894
 20
27.554089
 30
0.0
  0
LWPOLYLINE
  5
12a
100
AcDbEntity
  8
newlayer
 62
7
100
AcDbPolyline
 90
10
 70
0
 10
92.922671
 20
27.554089
 30
0.0
 10
92.922671
 20
24.590756
 30
0.0
 10
93.120227
 20
23.998089
 30
0.0
 10
93.515338
 20
23.602978
 30
0.0
 10
94.108005
 20
23.405423
 30
0.0
 10
94.503116
 20
23.405423
 30
0.0
 10
95.095782
 20
23.602978
 30
0.0
 10
95.490894
 20
23.998089
 30
0.0
 10
95.688449
 20
24.590756
 30
0.0
 10
95.688449
 20
27.554089
 30
0.0
  0
LWPOLYLINE
  5
12b
100
AcDbEntity
  8
newlayer
 62
7
100
AcDbPolyline
 90
20
 70
0
 10
99.837116
 20
26.961423
 30
0.0
 10
99.442005
 20
27.356534
 30
0.0
 10
98.849338
 20
27.554089
 30
0.0
 10
98.059116
 20
27.554089
 30
0.0
 10
97.466449
 20
27.356534
 30
0.0
 10
97.071338
 20
26.961423
 30
0.0
 10
97.071338
 20
26.566312
 30
0.0
 10
97.268894
 20
26.171200
 30
0.0
 10
97.466449
 20
25.973645
 30
0.0
 10
97.861560
 20
25.776089
 30
0.0
 10
99.046894
 20
25.380978
 30
0.0
 10
99.442005
 20
25.183423
 30
0.0
 10
99.639560
 20
24.985867
 30
0.0
 10
99.837116
 20
24.590756
 30
0.0
 10
99.837116
 20
23.998089
 30
0.0
 10
99.442005
 20
23.602978
 30
0.0
 10
98.849338
 20
23.405423
 30
0.0
 10
98.059116
 20
23.405423
 30
0.0
 10
97.466449
 20
23.602978
 30
0.0
 10
97.071338
 20
23.998089
 30
0.0
  0
LWPOLYLINE
  5
12c
100
AcDbEntity
  8
newlayer
 62
7
100
AcDbPolyline
 90
20
 70
0
 10
27.404782
 20
10.832536
 30
0.0
 10
27.009671
 20
11.227647
 30
0.0
 10
26.417005
 20
11.425202
 30
0.0
 10
25.626782
 20
11.425202
 30
0.0
 10
25.034116
 20
11.227647
 30
0.0
 10
24.639005
 20
10.832536
 30
0.0
 10
24.639005
 20
10.437424
 30
0.0
 10
24.836560
 20
10.042313
 30
0.0
 10
25.034116
 20
9.844758
 30
0.0
 10
25.429227
 20
9.647202
 30
0.0
 10
26.614560
 20
9.252091
 30
0.0
 10
27.009671
 20
9.054536
 30
0.0
 10
27.207227
 20
8.856980
 30
0.0
 10
27.404782
 20
8.461869
 30
0.0
 10
27.404782
 20
7.869202
 30
0.0
 10
27.009671
 20
7.474091
 30
0.0
 10
26.417005
 20
7.276536
 30
0.0
 10
25.626782
 20
7.276536
 30
0.0
 10
25.034116
 20
7.474091
 30
0.0
 10
24.639005
 20
7.869202
 30
0.0
  0
LWPOLYLINE
  5
12d
100
AcDbEntity
  8
newlayer
 62
7
100
AcDbPolyline
 90
2
 70
0
 10
28.787671
 20
11.425202
 30
0.0
 10
28.787671
 20
7.276536
 30
0.0
  0
LWPOLYLINE
  5
12e
100
AcDbEntity
  8
newlayer
 62
7
100
AcDbPolyline
 90
19
 70
0
 10
33.133894
 20
10.437424
 30
0.0
 10
32.936338
 20
10.832536
 30
0.0
 10
32.541227
 20
11.227647
 30
0.0
 10
32.146116
 20
11.425202
 30
0.0
 10
31.355894
 20
11.425202
 30
0.0
 10
30.960782
 20
11.227647
 30
0.0
 10
30.565671
 20
10.832536
 30
0.0
 10
30.368116
 20
10.437424
 30
0.0
 10
30.170560
 20
9.844758
 30
0.0
 10
30.170560
 20
8.856980
 30
0.0
 10
30.368116
 20
8.264313
 30
0.0
 10
30.565671
 20
7.869202
 30
0.0
 10
30.960782
 20
7.474091
 30
0.0
 10
31.355894
 20
7.276536
 30
0.0
 10
32.146116
 20
7.276536
 30
0.0
 10
32.541227
 20
7.474091
 30
0.0
 10
32.936338
 20
7.869202
 30
0.0
 10
33.133894
 20
8.264313
 30
0.0
 10
33.133894
 20
8.856980
 30
0.0
  0
LWPOLYLINE
  5
12f
100
AcDbEntity
  8
newlayer
 62
7
100
AcDbPolyline
 90
2
 70
0
 10
32.146116
 20
8.856980
 30
0.0
 10
33.133894
 20
8.856980
 30
0.0
  0
LWPOLYLINE
  5
130
100
AcDbEntity
  8
newlayer
 62
7
100
AcDbPolyline
 90
2
 70
0
 10
34.516782
 20
11.425202
 30
0.0
 10
34.516782
 20
7.276536
 30
0.0
  0
LWPOLYLINE
  5
131
100
AcDbEntity
  8
newlayer
 62
7
100
AcDbPolyline
 90
2
 70
0
 10
34.516782
 20
11.425202
 30
0.0
 10
37.282560
 20
7.276536
 30
0.0
  0
LWPOLYLINE
  5
132
100
AcDbEntity
  8
newlayer
 62
7
100
AcDbPolyline
 90
2
 70
0
 10
37.282560
 20
11.425202
 30
0.0
 10
37.282560
 20
7.276536
 30
0.0
  0
LWPOLYLINE
  5
133
100
AcDbEntity
  8
newlayer
 62
7
100
AcDbPolyline
 90
21
 70
0
 10
43.011671
 20
11.425202
 30
0.0
 10
42.616560
 20
11.227647
 30
0.0
 10
42.221449
 20
10.832536
 30
0.0
 10
42.023894
 20
10.437424
 30
0.0
 10
41.826338
 20
9.844758
 30
0.0
 10
41.826338
 20
8.856980
 30
0.0
 10
42.023894
 20
8.264313
 30
0.0
 10
42.221449
 20
7.869202
 30
0.0
 10
42.616560
 20
7.474091
 30
0.0
 10
43.011671
 20
7.276536
 30
0.0
 10
43.801894
 20
7.276536
 30
0.0
 10
44.197005
 20
7.474091
 30
0.0
 10
44.592116
 20
7.869202
 30
0.0
 10
44.789671
 20
8.264313
 30
0.0
 10
44.987227
 20
8.856980
 30
0.0
 10
44.987227
 20
9.844758
 30
0.0
 10
44.789671
 20
10.437424
 30
0.0
 10
44.592116
 20
10.832536
 30
0.0
 10
44.197005
 20
11.227647
 30
0.0
 10
43.801894
 20
11.425202
 30
0.0
 10
43.011671
 20
11.425202
 30
0.0
  0
LWPOLYLINE
  5
134
100
AcDbEntity
  8
newlayer
 62
7
100
AcDbPolyline
 90
2
 70
0
 10
46.370116
 20
11.425202
 30
0.0
 10
46.370116
 20
7.276536
 30
0.0
  0
LWPOLYLINE
  5
135
100
AcDbEntity
  8
newlayer
 62
7
100
AcDbPolyline
 90
2
 70
0
 10
46.370116
 20
11.425202
 30
0.0
 10
48.938338
 20
11.425202
 30
0.0
  0
LWPOLYLINE
  5
136
100
AcDbEntity
  8
newlayer
 62
7
100
AcDbPolyline
 90
2
 70
0
 10
46.370116
 20
9.449647
 30
0.0
 10
47.950560
 20
9.449647
 30
0.0
  0
LWPOLYLINE
  5
137
100
AcDbEntity
  8
newlayer
 62
7
100
AcDbPolyline
 90
2
 70
0
 10
49.926116
 20
11.425202
 30
0.0
 10
49.926116
 20
7.276536
 30
0.0
  0
LWPOLYLINE
  5
138
100
AcDbEntity
  8
newlayer
 62
7
100
AcDbPolyline
 90
2
 70
0
 10
49.926116
 20
11.425202
 30
0.0
 10
52.494338
 20
11.425202
 30
0.0
  0
SPLINE
  5
139
100
AcDbEntity
  8
newlayer
 62
7
100
AcDbSpline
 70
8
 71
3
 72
8
 73
4
 74
0
 40
0
 40
0
 40
0
 40
0
 40
1
 40
1
 40
1
 40
1
 10
24.133339
 20
32.806668
 30
0.0
 10
24.133341
 20
32.143625
 30
0.0
 10
23.869950
 20
31.507738
 30
0.0
 10
23.401109
 20
31.038895
 30
0.0
  0
SPLINE
  5
13a
100
AcDbEntity
  8
newlayer
 62
7
100
AcDbSpline
 70
8
 71
3
 72
8
 73
4
 74
0
 40
0
 40
0
 40
0
 40
0
 40
1
 40
1
 40
1
 40
1
 10
23.401109
 20
31.038895
 30
0.0
 10
22.932268
 20
30.570053
 30
0.0
 10
22.296382
 20
30.306659
 30
0.0
 10
21.633339
 20
30.306659
 30
0.0
  0
SPLINE
  5
13b
100
AcDbEntity
  8
newlayer
 62
7
100
AcDbSpline
 70
8
 71
3
 72
8
 73
4
 74
0
 40
0
 40
0
 40
0
 40
0
 40
1
 40
1
 40
1
 40
1
 10
21.633339
 20
30.306659
 30
0.0
 10
20.970296
 20
30.306659
 30
0.0
 10
20.334410
 20
30.570052
 30
0.0
 10
19.865569
 20
31.038895
 30
0.0
  0
SPLINE
  5
13c
100
AcDbEntity
  8
newlayer
 62
7
100
AcDbSpline
 70
8
 71
3
 72
8
 73
4
 74
0
 40
0
 40
0
 40
0
 40
0
 40
1
 40
1
 40
1
 40
1
 10
19.865569
 20
31.038895
 30
0.0
 10
19.396727
 20
31.507738
 30
0.0
 10
19.133336
 20
32.143625
 30
0.0
 10
19.133339
 20
32.806668
 30
0.0
  0
SPLINE
  5
13d
100
AcDbEntity
  8
newlayer
 62
7
100
AcDbSpline
 70
8
 71
3
 72
8
 73
4
 74
0
 40
0
 40
0
 40
0
 40
0
 40
1
 40
1
 40
1
 40
1
 10
19.133339
 20
32.806668
 30
0.0
 10
19.133336
 20
33.469711
 30
0.0
 10
19.396727
 20
34.105598
 30
0.0
 10
19.865569
 20
34.574441
 30
0.0
  0
SPLINE
  5
13e
100
AcDbEntity
  8
newlayer
 62
7
100
AcDbSpline
 70
8
 71
3
 72
8
 73
4
 74
0
 40
0
 40
0
 40
0
 40
0
 40
1
 40
1
 40
1
 40
1
 10
19.865569
 20
34.574441
 30
0.0
 10
20.334410
 20
35.043284
 30
0.0
 10
20.970296
 20
35.306677
 30
0.0
 10
21.633339
 20
35.306677
 30
0.0
  0
SPLINE
  5
13f
100
AcDbEntity
  8
newlayer
 62
7
100
AcDbSpline
 70
8
 71
3
 72
8
 73
4
 74
0
 40
0
 40
0
 40
0
 40
0
 40
1
 40
1
 40
1
 40
1
 10
21.633339
 20
35.306677
 30
0.0
 10
22.296382
 20
35.306677
 30
0.0
 10
22.932268
 20
35.043284
 30
0.0
 10
23.401109
 20
34.574441
 30
0.0
  0
SPLINE
  5
140
100
AcDbEntity
  8
newlayer
 62
7
100
AcDbSpline
 70
8
 71
3
 72
8
 73
4
 74
0
 40
0
 40
0
 40
0
 40
0
 40
1
 40
1
 40
1
 40
1
 10
23.401109
 20
34.574441
 30
0.0
 10
23.869950
 20
34.105598
 30
0.0
 10
24.133341
 20
33.469711
 30
0.0
 10
24.133339
 20
32.806668
 30
0.0
  0
LWPOLYLINE
  5
141
100
AcDbEntity
  8
newlayer
 62
7
100
AcDbPolyline
 90
2
 70
0
 10
49.926116
 20
9.449647
 30
0.0
 10
51.506560
 20
9.449647
 30
0.0
  0
SPLINE
  5
142
100
AcDbEntity
  8
newlayer
 62
7
100
AcDbSpline
 70
8
 71
3
 72
8
 73
4
 74
0
 40
0
 40
0
 40
0
 40
0
 40
1
 40
1
 40
1
 40
1
 10
91.866669
 20
32.806668
 30
0.0
 10
91.866672
 20
32.143626
 30
0.0
 10
91.603281
 20
31.507739
 30
0.0
 10
91.134440
 20
31.038896
 30
0.0
  0
SPLINE
  5
143
100
AcDbEntity
  8
newlayer
 62
7
100
AcDbSpline
 70
8
 71
3
 72
8
 73
4
 74
0
 40
0
 40
0
 40
0
 40
0
 40
1
 40
1
 40
1
 40
1
 10
91.134440
 20
31.038896
 30
0.0
 10
90.665599
 20
30.570053
 30
0.0
 10
90.029714
 20
30.306660
 30
0.0
 10
89.366671
 20
30.306659
 30
0.0
  0
SPLINE
  5
144
100
AcDbEntity
  8
newlayer
 62
7
100
AcDbSpline
 70
8
 71
3
 72
8
 73
4
 74
0
 40
0
 40
0
 40
0
 40
0
 40
1
 40
1
 40
1
 40
1
 10
89.366671
 20
30.306659
 30
0.0
 10
88.703628
 20
30.306659
 30
0.0
 10
88.067742
 20
30.570052
 30
0.0
 10
87.598901
 20
31.038895
 30
0.0
  0
SPLINE
  5
145
100
AcDbEntity
  8
newlayer
 62
7
100
AcDbSpline
 70
8
 71
3
 72
8
 73
4
 74
0
 40
0
 40
0
 40
0
 40
0
 40
1
 40
1
 40
1
 40
1
 10
87.598901
 20
31.038895
 30
0.0
 10
87.130059
 20
31.507738
 30
0.0
 10
86.866668
 20
32.143625
 30
0.0
 10
86.866671
 20
32.806668
 30
0.0
  0
SPLINE
  5
146
100
AcDbEntity
  8
newlayer
 62
7
100
AcDbSpline
 70
8
 71
3
 72
8
 73
4
 74
0
 40
0
 40
0
 40
0
 40
0
 40
1
 40
1
 40
1
 40
1
 10
86.866671
 20
32.806668
 30
0.0
 10
86.866668
 20
33.469711
 30
0.0
 10
87.130059
 20
34.105598
 30
0.0
 10
87.598901
 20
34.574441
 30
0.0
  0
SPLINE
  5
147
100
AcDbEntity
  8
newlayer
 62
7
100
AcDbSpline
 70
8
 71
3
 72
8
 73
4
 74
0
 40
0
 40
0
 40
0
 40
0
 40
1
 40
1
 40
1
 40
1
 10
87.598901
 20
34.574441
 30
0.0
 10
88.067742
 20
35.043284
 30
0.0
 10
88.703628
 20
35.306677
 30
0.0
 10
89.366671
 20
35.306677
 30
0.0
  0
SPLINE
  5
148
100
AcDbEntity
  8
newlayer
 62
7
100
AcDbSpline
 70
8
 71
3
 72
8
 73
4
 74
0
 40
0
 40
0
 40
0
 40
0
 40
1
 40
1
 40
1
 40
1
 10
89.366671
 20
35.306677
 30
0.0
 10
90.029714
 20
35.306677
 30
0.0
 10
90.665599
 20
35.043283
 30
0.0
 10
91.134440
 20
34.574440
 30
0.0
  0
SPLINE
  5
149
100
AcDbEntity
  8
newlayer
 62
7
100
AcDbSpline
 70
8
 71
3
 72
8
 73
4
 74
0
 40
0
 40
0
 40
0
 40
0
 40
1
 40
1
 40
1
 40
1
 10
91.134440
 20
34.574440
 30
0.0
 10
91.603281
 20
34.105597
 30
0.0
 10
91.866672
 20
33.469711
 30
0.0
 10
91.866669
 20
32.806668
 30
0.0
  0
LWPOLYLINE
  5
14a
100
AcDbEntity
  8
newlayer
 62
7
100
AcDbPolyline
 90
2
 70
1
 10
24.133339
 20
32.806668
 30
0.0
 10
24.133339
 20
32.806668
 30
0.0
  0
SPLINE
  5
14b
100
AcDbEntity
  8
newlayer
 62
7
100
AcDbSpline
 70
8
 71
3
 72
8
 73
4
 74
0
 40
0
 40
0
 40
0
 40
0
 40
1
 40
1
 40
1
 40
1
 10
58.000005
 20
32.806668
 30
0.0
 10
58.000008
 20
32.143625
 30
0.0
 10
57.736617
 20
31.507738
 30
0.0
 10
57.267775
 20
31.038895
 30
0.0
  0
SPLINE
  5
14c
100
AcDbEntity
  8
newlayer
 62
7
100
AcDbSpline
 70
8
 71
3
 72
8
 73
4
 74
0
 40
0
 40
0
 40
0
 40
0
 40
1
 40
1
 40
1
 40
1
 10
57.267775
 20
31.038895
 30
0.0
 10
56.798934
 20
30.570052
 30
0.0
 10
56.163048
 20
30.306659
 30
0.0
 10
55.500005
 20
30.306659
 30
0.0
  0
SPLINE
  5
14d
100
AcDbEntity
  8
newlayer
 62
7
100
AcDbSpline
 70
8
 71
3
 72
8
 73
4
 74
0
 40
0
 40
0
 40
0
 40
0
 40
1
 40
1
 40
1
 40
1
 10
55.500005
 20
30.306659
 30
0.0
 10
54.836962
 20
30.306659
 30
0.0
 10
54.201075
 20
30.570052
 30
0.0
 10
53.732234
 20
31.038895
 30
0.0
  0
SPLINE
  5
14e
100
AcDbEntity
  8
newlayer
 62
7
100
AcDbSpline
 70
8
 71
3
 72
8
 73
4
 74
0
 40
0
 40
0
 40
0
 40
0
 40
1
 40
1
 40
1
 40
1
 10
53.732234
 20
31.038895
 30
0.0
 10
53.263393
 20
31.507738
 30
0.0
 10
53.000002
 20
32.143625
 30
0.0
 10
53.000004
 20
32.806668
 30
0.0
  0
SPLINE
  5
14f
100
AcDbEntity
  8
newlayer
 62
7
100
AcDbSpline
 70
8
 71
3
 72
8
 73
4
 74
0
 40
0
 40
0
 40
0
 40
0
 40
1
 40
1
 40
1
 40
1
 10
53.000004
 20
32.806668
 30
0.0
 10
53.000002
 20
33.469711
 30
0.0
 10
53.263393
 20
34.105598
 30
0.0
 10
53.732234
 20
34.574441
 30
0.0
  0
SPLINE
  5
150
100
AcDbEntity
  8
newlayer
 62
7
100
AcDbSpline
 70
8
 71
3
 72
8
 73
4
 74
0
 40
0
 40
0
 40
0
 40
0
 40
1
 40
1
 40
1
 40
1
 10
53.732234
 20
34.574441
 30
0.0
 10
54.201075
 20
35.043284
 30
0.0
 10
54.836962
 20
35.306677
 30
0.0
 10
55.500005
 20
35.306677
 30
0.0
  0
SPLINE
  5
151
100
AcDbEntity
  8
newlayer
 62
7
100
AcDbSpline
 70
8
 71
3
 72
8
 73
4
 74
0
 40
0
 40
0
 40
0
 40
0
 40
1
 40
1
 40
1
 40
1
 10
55.500005
 20
35.306677
 30
0.0
 10
56.163048
 20
35.306677
 30
0.0
 10
56.798934
 20
35.043284
 30
0.0
 10
57.267775
 20
34.574441
 30
0.0
  0
SPLINE
  5
152
100
AcDbEntity
  8
newlayer
 62
7
100
AcDbSpline
 70
8
 71
3
 72
8
 73
4
 74
0
 40
0
 40
0
 40
0
 40
0
 40
1
 40
1
 40
1
 40
1
 10
57.267775
 20
34.574441
 30
0.0
 10
57.736617
 20
34.105598
 30
0.0
 10
58.000008
 20
33.469711
 30
0.0
 10
58.000005
 20
32.806668
 30
0.0
  0
LWPOLYLINE
  5
153
100
AcDbEntity
  8
newlayer
 62
7
100
AcDbPolyline
 90
2
 70
1
 10
91.866669
 20
32.806668
 30
0.0
 10
91.866669
 20
32.806668
 30
0.0
  0
LWPOLYLINE
  5
154
100
AcDbEntity
  8
newlayer
 62
7
100
AcDbPolyline
 90
2
 70
1
 10
58.000005
 20
32.806668
 30
0.0
 10
58.000005
 20
32.806668
 30
0.0
  0
LWPOLYLINE
  5
155
100
AcDbEntity
  8
newlayer
 62
7
100
AcDbPolyline
 90
2
 70
0
 10
45.128338
 20
27.554089
 30
0.0
 10
45.128338
 20
23.405423
 30
0.0
  0
LWPOLYLINE
  5
156
100
AcDbEntity
  8
newlayer
 62
7
100
AcDbPolyline
 90
2
 70
0
 10
46.708782
 20
27.554089
 30
0.0
 10
46.708782
 20
23.405423
 30
0.0
  0
LWPOLYLINE
  5
157
100
AcDbEntity
  8
newlayer
 62
7
100
AcDbPolyline
 90
2
 70
0
 10
46.708782
 20
27.554089
 30
0.0
 10
49.474560
 20
23.405423
 30
0.0
  0
LWPOLYLINE
  5
158
100
AcDbEntity
  8
newlayer
 62
7
100
AcDbPolyline
 90
2
 70
0
 10
49.474560
 20
27.554089
 30
0.0
 10
49.474560
 20
23.405423
 30
0.0
  0
LWPOLYLINE
  5
159
100
AcDbEntity
  8
newlayer
 62
7
100
AcDbPolyline
 90
2
 70
0
 10
51.055005
 20
27.554089
 30
0.0
 10
51.055005
 20
23.405423
 30
0.0
  0
LWPOLYLINE
  5
15a
100
AcDbEntity
  8
newlayer
 62
7
100
AcDbPolyline
 90
12
 70
0
 10
51.055005
 20
27.554089
 30
0.0
 10
52.437894
 20
27.554089
 30
0.0
 10
53.030560
 20
27.356534
 30
0.0
 10
53.425671
 20
26.961423
 30
0.0
 10
53.623227
 20
26.566312
 30
0.0
 10
53.820782
 20
25.973645
 30
0.0
 10
53.820782
 20
24.985867
 30
0.0
 10
53.623227
 20
24.393200
 30
0.0
 10
53.425671
 20
23.998089
 30
0.0
 10
53.030560
 20
23.602978
 30
0.0
 10
52.437894
 20
23.405423
 30
0.0
 10
51.055005
 20
23.405423
 30
0.0
  0
LWPOLYLINE
  5
15b
100
AcDbEntity
  8
newlayer
 62
7
100
AcDbPolyline
 90
10
 70
0
 10
55.203671
 20
27.554089
 30
0.0
 10
55.203671
 20
24.590756
 30
0.0
 10
55.401227
 20
23.998089
 30
0.0
 10
55.796338
 20
23.602978
 30
0.0
 10
56.389005
 20
23.405423
 30
0.0
 10
56.784116
 20
23.405423
 30
0.0
 10
57.376782
 20
23.602978
 30
0.0
 10
57.771894
 20
23.998089
 30
0.0
 10
57.969449
 20
24.590756
 30
0.0
 10
57.969449
 20
27.554089
 30
0.0
  0
LWPOLYLINE
  5
15c
100
AcDbEntity
  8
newlayer
 62
7
100
AcDbPolyline
 90
18
 70
0
 10
62.315671
 20
26.566312
 30
0.0
 10
62.118116
 20
26.961423
 30
0.0
 10
61.723005
 20
27.356534
 30
0.0
 10
61.327894
 20
27.554089
 30
0.0
 10
60.537671
 20
27.554089
 30
0.0
 10
60.142560
 20
27.356534
 30
0.0
 10
59.747449
 20
26.961423
 30
0.0
 10
59.549894
 20
26.566312
 30
0.0
 10
59.352338
 20
25.973645
 30
0.0
 10
59.352338
 20
24.985867
 30
0.0
 10
59.549894
 20
24.393200
 30
0.0
 10
59.747449
 20
23.998089
 30
0.0
 10
60.142560
 20
23.602978
 30
0.0
 10
60.537671
 20
23.405423
 30
0.0
 10
61.327894
 20
23.405423
 30
0.0
 10
61.723005
 20
23.602978
 30
0.0
 10
62.118116
 20
23.998089
 30
0.0
 10
62.315671
 20
24.393200
 30
0.0
  0
LWPOLYLINE
  5
15d
100
AcDbEntity
  8
newlayer
 62
7
100
AcDbPolyline
 90
2
 70
0
 10
64.488782
 20
27.554089
 30
0.0
 10
64.488782
 20
23.405423
 30
0.0
  0
SPLINE
  5
15e
100
AcDbEntity
  8
newlayer
 62
7
100
AcDbSpline
 70
8
 71
3
 72
8
 73
4
 74
0
 40
0
 40
0
 40
0
 40
0
 40
1
 40
1
 40
1
 40
1
 10
152.014428
 20
78.642210
 30
0.0
 10
152.581587
 20
78.642210
 30
0.0
 10
153.105664
 20
78.339634
 30
0.0
 10
153.389243
 20
77.848460
 30
0.0
  0
SPLINE
  5
15f
100
AcDbEntity
  8
newlayer
 62
7
100
AcDbSpline
 70
8
 71
3
 72
8
 73
4
 74
0
 40
0
 40
0
 40
0
 40
0
 40
1
 40
1
 40
1
 40
1
 10
153.389243
 20
77.848460
 30
0.0
 10
153.672823
 20
77.357286
 30
0.0
 10
153.672823
 20
76.752134
 30
0.0
 10
153.389243
 20
76.260960
 30
0.0
  0
SPLINE
  5
160
100
AcDbEntity
  8
newlayer
 62
7
100
AcDbSpline
 70
8
 71
3
 72
8
 73
4
 74
0
 40
0
 40
0
 40
0
 40
0
 40
1
 40
1
 40
1
 40
1
 10
153.389243
 20
76.260960
 30
0.0
 10
153.105664
 20
75.769786
 30
0.0
 10
152.581587
 20
75.467210
 30
0.0
 10
152.014428
 20
75.467210
 30
0.0
  0
SPLINE
  5
161
100
AcDbEntity
  8
newlayer
 62
7
100
AcDbSpline
 70
8
 71
3
 72
8
 73
4
 74
0
 40
0
 40
0
 40
0
 40
0
 40
1
 40
1
 40
1
 40
1
 10
152.014428
 20
75.467210
 30
0.0
 10
151.447269
 20
75.467210
 30
0.0
 10
150.923192
 20
75.769786
 30
0.0
 10
150.639613
 20
76.260960
 30
0.0
  0
SPLINE
  5
162
100
AcDbEntity
  8
newlayer
 62
7
100
AcDbSpline
 70
8
 71
3
 72
8
 73
4
 74
0
 40
0
 40
0
 40
0
 40
0
 40
1
 40
1
 40
1
 40
1
 10
150.639613
 20
76.260960
 30
0.0
 10
150.356033
 20
76.752134
 30
0.0
 10
150.356033
 20
77.357286
 30
0.0
 10
150.639613
 20
77.848460
 30
0.0
  0
SPLINE
  5
163
100
AcDbEntity
  8
newlayer
 62
7
100
AcDbSpline
 70
8
 71
3
 72
8
 73
4
 74
0
 40
0
 40
0
 40
0
 40
0
 40
1
 40
1
 40
1
 40
1
 10
150.639613
 20
77.848460
 30
0.0
 10
150.923192
 20
78.339634
 30
0.0
 10
151.447269
 20
78.642210
 30
0.0
 10
152.014428
 20
78.642210
 30
0.0
  0
LWPOLYLINE
  5
164
100
AcDbEntity
  8
newlayer
 62
7
100
AcDbPolyline
 90
2
 70
0
 10
63.105894
 20
27.554089
 30
0.0
 10
65.871671
 20
27.554089
 30
0.0
  0
SPLINE
  5
165
100
AcDbEntity
  8
newlayer
 62
7
100
AcDbSpline
 70
8
 71
3
 72
8
 73
4
 74
0
 40
0
 40
0
 40
0
 40
0
 40
1
 40
1
 40
1
 40
1
 10
200.274428
 20
79.912210
 30
0.0
 10
200.841587
 20
79.912210
 30
0.0
 10
201.365664
 20
79.609634
 30
0.0
 10
201.649243
 20
79.118460
 30
0.0
  0
SPLINE
  5
166
100
AcDbEntity
  8
newlayer
 62
7
100
AcDbSpline
 70
8
 71
3
 72
8
 73
4
 74
0
 40
0
 40
0
 40
0
 40
0
 40
1
 40
1
 40
1
 40
1
 10
201.649243
 20
79.118460
 30
0.0
 10
201.932823
 20
78.627286
 30
0.0
 10
201.932823
 20
78.022134
 30
0.0
 10
201.649243
 20
77.530960
 30
0.0
  0
SPLINE
  5
167
100
AcDbEntity
  8
newlayer
 62
7
100
AcDbSpline
 70
8
 71
3
 72
8
 73
4
 74
0
 40
0
 40
0
 40
0
 40
0
 40
1
 40
1
 40
1
 40
1
 10
201.649243
 20
77.530960
 30
0.0
 10
201.365664
 20
77.039786
 30
0.0
 10
200.841587
 20
76.737210
 30
0.0
 10
200.274428
 20
76.737210
 30
0.0
  0
SPLINE
  5
168
100
AcDbEntity
  8
newlayer
 62
7
100
AcDbSpline
 70
8
 71
3
 72
8
 73
4
 74
0
 40
0
 40
0
 40
0
 40
0
 40
1
 40
1
 40
1
 40
1
 10
200.274428
 20
76.737210
 30
0.0
 10
199.707269
 20
76.737210
 30
0.0
 10
199.183192
 20
77.039786
 30
0.0
 10
198.899613
 20
77.530960
 30
0.0
  0
SPLINE
  5
169
100
AcDbEntity
  8
newlayer
 62
7
100
AcDbSpline
 70
8
 71
3
 72
8
 73
4
 74
0
 40
0
 40
0
 40
0
 40
0
 40
1
 40
1
 40
1
 40
1
 10
198.899613
 20
77.530960
 30
0.0
 10
198.616033
 20
78.022134
 30
0.0
 10
198.616033
 20
78.627286
 30
0.0
 10
198.899613
 20
79.118460
 30
0.0
  0
SPLINE
  5
16a
100
AcDbEntity
  8
newlayer
 62
7
100
AcDbSpline
 70
8
 71
3
 72
8
 73
4
 74
0
 40
0
 40
0
 40
0
 40
0
 40
1
 40
1
 40
1
 40
1
 10
198.899613
 20
79.118460
 30
0.0
 10
199.183192
 20
79.609634
 30
0.0
 10
199.707269
 20
79.912210
 30
0.0
 10
200.274428
 20
79.912210
 30
0.0
  0
LWPOLYLINE
  5
16b
100
AcDbEntity
  8
newlayer
 62
7
100
AcDbPolyline
 90
2
 70
1
 10
152.014428
 20
78.642210
 30
0.0
 10
152.014428
 20
78.642210
 30
0.0
  0
SPLINE
  5
16c
100
AcDbEntity
  8
newlayer
 62
7
100
AcDbSpline
 70
8
 71
3
 72
8
 73
4
 74
0
 40
0
 40
0
 40
0
 40
0
 40
1
 40
1
 40
1
 40
1
 10
185.034428
 20
130.712210
 30
0.0
 10
185.601587
 20
130.712210
 30
0.0
 10
186.125664
 20
130.409634
 30
0.0
 10
186.409243
 20
129.918460
 30
0.0
  0
SPLINE
  5
16d
100
AcDbEntity
  8
newlayer
 62
7
100
AcDbSpline
 70
8
 71
3
 72
8
 73
4
 74
0
 40
0
 40
0
 40
0
 40
0
 40
1
 40
1
 40
1
 40
1
 10
186.409243
 20
129.918460
 30
0.0
 10
186.692823
 20
129.427286
 30
0.0
 10
186.692823
 20
128.822134
 30
0.0
 10
186.409243
 20
128.330960
 30
0.0
  0
SPLINE
  5
16e
100
AcDbEntity
  8
newlayer
 62
7
100
AcDbSpline
 70
8
 71
3
 72
8
 73
4
 74
0
 40
0
 40
0
 40
0
 40
0
 40
1
 40
1
 40
1
 40
1
 10
186.409243
 20
128.330960
 30
0.0
 10
186.125664
 20
127.839786
 30
0.0
 10
185.601587
 20
127.537210
 30
0.0
 10
185.034428
 20
127.537210
 30
0.0
  0
SPLINE
  5
16f
100
AcDbEntity
  8
newlayer
 62
7
100
AcDbSpline
 70
8
 71
3
 72
8
 73
4
 74
0
 40
0
 40
0
 40
0
 40
0
 40
1
 40
1
 40
1
 40
1
 10
185.034428
 20
127.537210
 30
0.0
 10
184.467269
 20
127.537210
 30
0.0
 10
183.943192
 20
127.839786
 30
0.0
 10
183.659613
 20
128.330960
 30
0.0
  0
SPLINE
  5
170
100
AcDbEntity
  8
newlayer
 62
7
100
AcDbSpline
 70
8
 71
3
 72
8
 73
4
 74
0
 40
0
 40
0
 40
0
 40
0
 40
1
 40
1
 40
1
 40
1
 10
183.659613
 20
128.330960
 30
0.0
 10
183.376033
 20
128.822134
 30
0.0
 10
183.376033
 20
129.427286
 30
0.0
 10
183.659613
 20
129.918460
 30
0.0
  0
SPLINE
  5
171
100
AcDbEntity
  8
newlayer
 62
7
100
AcDbSpline
 70
8
 71
3
 72
8
 73
4
 74
0
 40
0
 40
0
 40
0
 40
0
 40
1
 40
1
 40
1
 40
1
 10
183.659613
 20
129.918460
 30
0.0
 10
183.943192
 20
130.409634
 30
0.0
 10
184.467269
 20
130.712210
 30
0.0
 10
185.034428
 20
130.712210
 30
0.0
  0
LWPOLYLINE
  5
172
100
AcDbEntity
  8
newlayer
 62
7
100
AcDbPolyline
 90
2
 70
1
 10
200.274428
 20
79.912210
 30
0.0
 10
200.274428
 20
79.912210
 30
0.0
  0
SPLINE
  5
173
100
AcDbEntity
  8
newlayer
 62
7
100
AcDbSpline
 70
8
 71
3
 72
8
 73
4
 74
0
 40
0
 40
0
 40
0
 40
0
 40
1
 40
1
 40
1
 40
1
 10
157.094428
 20
130.712210
 30
0.0
 10
157.661587
 20
130.712210
 30
0.0
 10
158.185664
 20
130.409634
 30
0.0
 10
158.469243
 20
129.918460
 30
0.0
  0
SPLINE
  5
174
100
AcDbEntity
  8
newlayer
 62
7
100
AcDbSpline
 70
8
 71
3
 72
8
 73
4
 74
0
 40
0
 40
0
 40
0
 40
0
 40
1
 40
1
 40
1
 40
1
 10
158.469243
 20
129.918460
 30
0.0
 10
158.752823
 20
129.427286
 30
0.0
 10
158.752823
 20
128.822134
 30
0.0
 10
158.469243
 20
128.330960
 30
0.0
  0
SPLINE
  5
175
100
AcDbEntity
  8
newlayer
 62
7
100
AcDbSpline
 70
8
 71
3
 72
8
 73
4
 74
0
 40
0
 40
0
 40
0
 40
0
 40
1
 40
1
 40
1
 40
1
 10
158.469243
 20
128.330960
 30
0.0
 10
158.185664
 20
127.839786
 30
0.0
 10
157.661587
 20
127.537210
 30
0.0
 10
157.094428
 20
127.537210
 30
0.0
  0
SPLINE
  5
176
100
AcDbEntity
  8
newlayer
 62
7
100
AcDbSpline
 70
8
 71
3
 72
8
 73
4
 74
0
 40
0
 40
0
 40
0
 40
0
 40
1
 40
1
 40
1
 40
1
 10
157.094428
 20
127.537210
 30
0.0
 10
156.527269
 20
127.537210
 30
0.0
 10
156.003192
 20
127.839786
 30
0.0
 10
155.719613
 20
128.330960
 30
0.0
  0
SPLINE
  5
177
100
AcDbEntity
  8
newlayer
 62
7
100
AcDbSpline
 70
8
 71
3
 72
8
 73
4
 74
0
 40
0
 40
0
 40
0
 40
0
 40
1
 40
1
 40
1
 40
1
 10
155.719613
 20
128.330960
 30
0.0
 10
155.436033
 20
128.822134
 30
0.0
 10
155.436033
 20
129.427286
 30
0.0
 10
155.719613
 20
129.918460
 30
0.0
  0
SPLINE
  5
178
100
AcDbEntity
  8
newlayer
 62
7
100
AcDbSpline
 70
8
 71
3
 72
8
 73
4
 74
0
 40
0
 40
0
 40
0
 40
0
 40
1
 40
1
 40
1
 40
1
 10
155.719613
 20
129.918460
 30
0.0
 10
156.003192
 20
130.409634
 30
0.0
 10
156.527269
 20
130.712210
 30
0.0
 10
157.094428
 20
130.712210
 30
0.0
  0
LWPOLYLINE
  5
179
100
AcDbEntity
  8
newlayer
 62
7
100
AcDbPolyline
 90
2
 70
1
 10
185.034428
 20
130.712210
 30
0.0
 10
185.034428
 20
130.712210
 30
0.0
  0
SPLINE
  5
17a
100
AcDbEntity
  8
newlayer
 62
7
100
AcDbSpline
 70
8
 71
3
 72
8
 73
4
 74
0
 40
0
 40
0
 40
0
 40
0
 40
1
 40
1
 40
1
 40
1
 10
138.883339
 20
142.588883
 30
0.0
 10
138.883339
 20
141.346230
 30
0.0
 10
137.875978
 20
140.338866
 30
0.0
 10
136.633337
 20
140.338866
 30
0.0
  0
SPLINE
  5
17b
100
AcDbEntity
  8
newlayer
 62
7
100
AcDbSpline
 70
8
 71
3
 72
8
 73
4
 74
0
 40
0
 40
0
 40
0
 40
0
 40
1
 40
1
 40
1
 40
1
 10
136.633337
 20
140.338866
 30
0.0
 10
135.390698
 20
140.338866
 30
0.0
 10
134.383337
 20
141.346230
 30
0.0
 10
134.383337
 20
142.588883
 30
0.0
  0
SPLINE
  5
17c
100
AcDbEntity
  8
newlayer
 62
7
100
AcDbSpline
 70
8
 71
3
 72
8
 73
4
 74
0
 40
0
 40
0
 40
0
 40
0
 40
1
 40
1
 40
1
 40
1
 10
134.383337
 20
142.588883
 30
0.0
 10
134.383337
 20
143.831508
 30
0.0
 10
135.390698
 20
144.838872
 30
0.0
 10
136.633337
 20
144.838872
 30
0.0
  0
SPLINE
  5
17d
100
AcDbEntity
  8
newlayer
 62
7
100
AcDbSpline
 70
8
 71
3
 72
8
 73
4
 74
0
 40
0
 40
0
 40
0
 40
0
 40
1
 40
1
 40
1
 40
1
 10
136.633337
 20
144.838872
 30
0.0
 10
137.875978
 20
144.838872
 30
0.0
 10
138.883339
 20
143.831508
 30
0.0
 10
138.883339
 20
142.588883
 30
0.0
  0
LWPOLYLINE
  5
17e
100
AcDbEntity
  8
newlayer
 62
7
100
AcDbPolyline
 90
2
 70
1
 10
157.094428
 20
130.712210
 30
0.0
 10
157.094428
 20
130.712210
 30
0.0
  0
SPLINE
  5
17f
100
AcDbEntity
  8
newlayer
 62
7
100
AcDbSpline
 70
8
 71
3
 72
8
 73
4
 74
0
 40
0
 40
0
 40
0
 40
0
 40
1
 40
1
 40
1
 40
1
 10
138.883339
 20
18.411105
 30
0.0
 10
138.883339
 20
17.168453
 30
0.0
 10
137.875978
 20
16.161089
 30
0.0
 10
136.633337
 20
16.161089
 30
0.0
  0
SPLINE
  5
180
100
AcDbEntity
  8
newlayer
 62
7
100
AcDbSpline
 70
8
 71
3
 72
8
 73
4
 74
0
 40
0
 40
0
 40
0
 40
0
 40
1
 40
1
 40
1
 40
1
 10
136.633337
 20
16.161089
 30
0.0
 10
135.390698
 20
16.161089
 30
0.0
 10
134.383337
 20
17.168453
 30
0.0
 10
134.383337
 20
18.411105
 30
0.0
  0
SPLINE
  5
181
100
AcDbEntity
  8
newlayer
 62
7
100
AcDbSpline
 70
8
 71
3
 72
8
 73
4
 74
0
 40
0
 40
0
 40
0
 40
0
 40
1
 40
1
 40
1
 40
1
 10
134.383337
 20
18.411105
 30
0.0
 10
134.383337
 20
19.653730
 30
0.0
 10
135.390698
 20
20.661094
 30
0.0
 10
136.633337
 20
20.661094
 30
0.0
  0
SPLINE
  5
182
100
AcDbEntity
  8
newlayer
 62
7
100
AcDbSpline
 70
8
 71
3
 72
8
 73
4
 74
0
 40
0
 40
0
 40
0
 40
0
 40
1
 40
1
 40
1
 40
1
 10
136.633337
 20
20.661094
 30
0.0
 10
137.875978
 20
20.661094
 30
0.0
 10
138.883339
 20
19.653730
 30
0.0
 10
138.883339
 20
18.411105
 30
0.0
  0
LWPOLYLINE
  5
183
100
AcDbEntity
  8
newlayer
 62
7
100
AcDbPolyline
 90
2
 70
1
 10
138.883339
 20
142.588883
 30
0.0
 10
138.883339
 20
142.588883
 30
0.0
  0
SPLINE
  5
184
100
AcDbEntity
  8
newlayer
 62
7
100
AcDbSpline
 70
8
 71
3
 72
8
 73
4
 74
0
 40
0
 40
0
 40
0
 40
0
 40
1
 40
1
 40
1
 40
1
 10
217.905559
 20
142.588883
 30
0.0
 10
217.905559
 20
141.346230
 30
0.0
 10
216.898200
 20
140.338866
 30
0.0
 10
215.655559
 20
140.338866
 30
0.0
  0
SPLINE
  5
185
100
AcDbEntity
  8
newlayer
 62
7
100
AcDbSpline
 70
8
 71
3
 72
8
 73
4
 74
0
 40
0
 40
0
 40
0
 40
0
 40
1
 40
1
 40
1
 40
1
 10
215.655559
 20
140.338866
 30
0.0
 10
214.412920
 20
140.338866
 30
0.0
 10
213.405559
 20
141.346230
 30
0.0
 10
213.405559
 20
142.588883
 30
0.0
  0
SPLINE
  5
186
100
AcDbEntity
  8
newlayer
 62
7
100
AcDbSpline
 70
8
 71
3
 72
8
 73
4
 74
0
 40
0
 40
0
 40
0
 40
0
 40
1
 40
1
 40
1
 40
1
 10
213.405559
 20
142.588883
 30
0.0
 10
213.405559
 20
143.831508
 30
0.0
 10
214.412920
 20
144.838872
 30
0.0
 10
215.655559
 20
144.838872
 30
0.0
  0
SPLINE
  5
187
100
AcDbEntity
  8
newlayer
 62
7
100
AcDbSpline
 70
8
 71
3
 72
8
 73
4
 74
0
 40
0
 40
0
 40
0
 40
0
 40
1
 40
1
 40
1
 40
1
 10
215.655559
 20
144.838872
 30
0.0
 10
216.898200
 20
144.838872
 30
0.0
 10
217.905559
 20
143.831508
 30
0.0
 10
217.905559
 20
142.588883
 30
0.0
  0
LWPOLYLINE
  5
188
100
AcDbEntity
  8
newlayer
 62
7
100
AcDbPolyline
 90
2
 70
1
 10
138.883339
 20
18.411105
 30
0.0
 10
138.883339
 20
18.411105
 30
0.0
  0
SPLINE
  5
189
100
AcDbEntity
  8
newlayer
 62
7
100
AcDbSpline
 70
8
 71
3
 72
8
 73
4
 74
0
 40
0
 40
0
 40
0
 40
0
 40
1
 40
1
 40
1
 40
1
 10
217.905559
 20
18.411105
 30
0.0
 10
217.905559
 20
17.168453
 30
0.0
 10
216.898200
 20
16.161089
 30
0.0
 10
215.655559
 20
16.161089
 30
0.0
  0
SPLINE
  5
18a
100
AcDbEntity
  8
newlayer
 62
7
100
AcDbSpline
 70
8
 71
3
 72
8
 73
4
 74
0
 40
0
 40
0
 40
0
 40
0
 40
1
 40
1
 40
1
 40
1
 10
215.655559
 20
16.161089
 30
0.0
 10
214.412920
 20
16.161089
 30
0.0
 10
213.405559
 20
17.168453
 30
0.0
 10
213.405559
 20
18.411105
 30
0.0
  0
SPLINE
  5
18b
100
AcDbEntity
  8
newlayer
 62
7
100
AcDbSpline
 70
8
 71
3
 72
8
 73
4
 74
0
 40
0
 40
0
 40
0
 40
0
 40
1
 40
1
 40
1
 40
1
 10
213.405559
 20
18.411105
 30
0.0
 10
213.405559
 20
19.653730
 30
0.0
 10
214.412920
 20
20.661094
 30
0.0
 10
215.655559
 20
20.661094
 30
0.0
  0
SPLINE
  5
18c
100
AcDbEntity
  8
newlayer
 62
7
100
AcDbSpline
 70
8
 71
3
 72
8
 73
4
 74
0
 40
0
 40
0
 40
0
 40
0
 40
1
 40
1
 40
1
 40
1
 10
215.655559
 20
20.661094
 30
0.0
 10
216.898200
 20
20.661094
 30
0.0
 10
217.905559
 20
19.653730
 30
0.0
 10
217.905559
 20
18.411105
 30
0.0
  0
LWPOLYLINE
  5
18d
100
AcDbEntity
  8
newlayer
 62
7
100
AcDbPolyline
 90
2
 70
1
 10
217.905559
 20
142.588883
 30
0.0
 10
217.905559
 20
142.588883
 30
0.0
  0
LWPOLYLINE
  5
18e
100
AcDbEntity
  8
newlayer
 62
7
100
AcDbPolyline
 90
2
 70
1
 10
217.905559
 20
18.411105
 30
0.0
 10
217.905559
 20
18.411105
 30
0.0
  0
SPLINE
  5
18f
100
AcDbEntity
  8
newlayer
 62
7
100
AcDbSpline
 70
8
 71
3
 72
8
 73
4
 74
0
 40
0
 40
0
 40
0
 40
0
 40
1
 40
1
 40
1
 40
1
 10
520.109337
 20
67.821246
 30
0.0
 10
520.109337
 20
66.854776
 30
0.0
 10
519.325832
 20
66.071270
 30
0.0
 10
518.359334
 20
66.071270
 30
0.0
  0
SPLINE
  5
190
100
AcDbEntity
  8
newlayer
 62
7
100
AcDbSpline
 70
8
 71
3
 72
8
 73
4
 74
0
 40
0
 40
0
 40
0
 40
0
 40
1
 40
1
 40
1
 40
1
 10
518.359334
 20
66.071270
 30
0.0
 10
517.392835
 20
66.071270
 30
0.0
 10
516.609330
 20
66.854776
 30
0.0
 10
516.609330
 20
67.821246
 30
0.0
  0
SPLINE
  5
191
100
AcDbEntity
  8
newlayer
 62
7
100
AcDbSpline
 70
8
 71
3
 72
8
 73
4
 74
0
 40
0
 40
0
 40
0
 40
0
 40
1
 40
1
 40
1
 40
1
 10
516.609330
 20
67.821246
 30
0.0
 10
516.609330
 20
68.787772
 30
0.0
 10
517.392835
 20
69.571277
 30
0.0
 10
518.359334
 20
69.571277
 30
0.0
  0
SPLINE
  5
192
100
AcDbEntity
  8
newlayer
 62
7
100
AcDbSpline
 70
8
 71
3
 72
8
 73
4
 74
0
 40
0
 40
0
 40
0
 40
0
 40
1
 40
1
 40
1
 40
1
 10
518.359334
 20
69.571277
 30
0.0
 10
519.325832
 20
69.571277
 30
0.0
 10
520.109337
 20
68.787772
 30
0.0
 10
520.109337
 20
67.821246
 30
0.0
  0
LWPOLYLINE
  5
193
100
AcDbEntity
  8
newlayer
 62
7
100
AcDbPolyline
 90
5
 70
1
 10
492.609322
 20
75.321245
 30
0.0
 10
516.609330
 20
75.321245
 30
0.0
 10
516.609330
 20
60.321246
 30
0.0
 10
492.609322
 20
60.321246
 30
0.0
 10
492.609322
 20
75.321245
 30
0.0
  0
SPLINE
  5
194
100
AcDbEntity
  8
newlayer
 62
7
100
AcDbSpline
 70
8
 71
3
 72
8
 73
4
 74
0
 40
0
 40
0
 40
0
 40
0
 40
1
 40
1
 40
1
 40
1
 10
492.609322
 20
67.821246
 30
0.0
 10
492.609322
 20
66.854776
 30
0.0
 10
491.825844
 20
66.071270
 30
0.0
 10
490.859346
 20
66.071270
 30
0.0
  0
SPLINE
  5
195
100
AcDbEntity
  8
newlayer
 62
7
100
AcDbSpline
 70
8
 71
3
 72
8
 73
4
 74
0
 40
0
 40
0
 40
0
 40
0
 40
1
 40
1
 40
1
 40
1
 10
490.859346
 20
66.071270
 30
0.0
 10
489.892848
 20
66.071270
 30
0.0
 10
489.109343
 20
66.854776
 30
0.0
 10
489.109343
 20
67.821246
 30
0.0
  0
SPLINE
  5
196
100
AcDbEntity
  8
newlayer
 62
7
100
AcDbSpline
 70
8
 71
3
 72
8
 73
4
 74
0
 40
0
 40
0
 40
0
 40
0
 40
1
 40
1
 40
1
 40
1
 10
489.109343
 20
67.821246
 30
0.0
 10
489.109343
 20
68.787772
 30
0.0
 10
489.892848
 20
69.571277
 30
0.0
 10
490.859346
 20
69.571277
 30
0.0
  0
SPLINE
  5
197
100
AcDbEntity
  8
newlayer
 62
7
100
AcDbSpline
 70
8
 71
3
 72
8
 73
4
 74
0
 40
0
 40
0
 40
0
 40
0
 40
1
 40
1
 40
1
 40
1
 10
490.859346
 20
69.571277
 30
0.0
 10
491.825844
 20
69.571277
 30
0.0
 10
492.609322
 20
68.787772
 30
0.0
 10
492.609322
 20
67.821246
 30
0.0
  0
LWPOLYLINE
  5
198
100
AcDbEntity
  8
newlayer
 62
7
100
AcDbPolyline
 90
2
 70
1
 10
520.109337
 20
67.821246
 30
0.0
 10
520.109337
 20
67.821246
 30
0.0
  0
LWPOLYLINE
  5
199
100
AcDbEntity
  8
newlayer
 62
7
100
AcDbPolyline
 90
2
 70
1
 10
492.609322
 20
67.821246
 30
0.0
 10
492.609322
 20
67.821246
 30
0.0
  0
LWPOLYLINE
  5
19a
100
AcDbEntity
  8
newlayer
 62
7
100
AcDbPolyline
 90
73
 70
0
 10
-3.000000
 20
157.999994
 30
0.0
 10
9.974998
 20
157.999994
 30
0.0
 10
9.974998
 20
164.000011
 30
0.0
 10
101.024986
 20
164.000011
 30
0.0
 10
101.024986
 20
157.999994
 30
0.0
 10
114.000012
 20
157.999994
 30
0.0
 10
114.000012
 20
151.128843
 30
0.0
 10
107.999996
 20
151.128843
 30
0.0
 10
107.999996
 20
138.332690
 30
0.0
 10
114.000012
 20
138.332690
 30
0.0
 10
114.000012
 20
125.436545
 30
0.0
 10
107.999996
 20
125.436545
 30
0.0
 10
107.999996
 20
112.640392
 30
0.0
 10
114.000012
 20
112.640392
 30
0.0
 10
114.000012
 20
99.744248
 30
0.0
 10
107.999996
 20
99.744248
 30
0.0
 10
107.999996
 20
86.948095
 30
0.0
 10
114.000012
 20
86.948095
 30
0.0
 10
114.000012
 20
74.051922
 30
0.0
 10
107.999996
 20
74.051922
 30
0.0
 10
107.999996
 20
61.255769
 30
0.0
 10
114.000012
 20
61.255769
 30
0.0
 10
114.000012
 20
48.359624
 30
0.0
 10
107.999996
 20
48.359624
 30
0.0
 10
107.999996
 20
35.563471
 30
0.0
 10
114.000012
 20
35.563471
 30
0.0
 10
114.000012
 20
22.667327
 30
0.0
 10
107.999996
 20
22.667327
 30
0.0
 10
107.999996
 20
9.871174
 30
0.0
 10
114.000012
 20
9.871174
 30
0.0
 10
114.000012
 20
2.999994
 30
0.0
 10
101.024986
 20
2.999994
 30
0.0
 10
101.024986
 20
-2.999994
 30
0.0
 10
87.975000
 20
-2.999994
 30
0.0
 10
87.975000
 20
2.999994
 30
0.0
 10
75.024999
 20
2.999994
 30
0.0
 10
75.024999
 20
-2.999994
 30
0.0
 10
61.974998
 20
-2.999994
 30
0.0
 10
61.974998
 20
2.999994
 30
0.0
 10
49.025000
 20
2.999994
 30
0.0
 10
49.025000
 20
-2.999994
 30
0.0
 10
35.974999
 20
-2.999994
 30
0.0
 10
35.974999
 20
2.999994
 30
0.0
 10
23.024998
 20
2.999994
 30
0.0
 10
23.024998
 20
-2.999994
 30
0.0
 10
9.974998
 20
-2.999994
 30
0.0
 10
9.974998
 20
2.999994
 30
0.0
 10
-3.000000
 20
2.999994
 30
0.0
 10
-3.000000
 20
9.871174
 30
0.0
 10
3.000000
 20
9.871174
 30
0.0
 10
3.000000
 20
22.667327
 30
0.0
 10
-3.000000
 20
22.667327
 30
0.0
 10
-3.000000
 20
35.563471
 30
0.0
 10
3.000000
 20
35.563471
 30
0.0
 10
3.000000
 20
48.359624
 30
0.0
 10
-3.000000
 20
48.359624
 30
0.0
 10
-3.000000
 20
61.255769
 30
0.0
 10
3.000000
 20
61.255769
 30
0.0
 10
3.000000
 20
74.051922
 30
0.0
 10
-3.000000
 20
74.051922
 30
0.0
 10
-3.000000
 20
86.948095
 30
0.0
 10
3.000000
 20
86.948095
 30
0.0
 10
3.000000
 20
99.744248
 30
0.0
 10
-3.000000
 20
99.744248
 30
0.0
 10
-3.000000
 20
112.640392
 30
0.0
 10
3.000000
 20
112.640392
 30
0.0
 10
3.000000
 20
125.436545
 30
0.0
 10
-3.000000
 20
125.436545
 30
0.0
 10
-3.000000
 20
138.332690
 30
0.0
 10
3.000000
 20
138.332690
 30
0.0
 10
3.000000
 20
151.128843
 30
0.0
 10
-3.000000
 20
151.128843
 30
0.0
 10
-3.000000
 20
157.999994
 30
0.0
  0
LWPOLYLINE
  5
19b
100
AcDbEntity
  8
newlayer
 62
7
100
AcDbPolyline
 90
77
 70
0
 10
318.758776
 20
157.999963
 30
0.0
 10
318.758776
 20
151.178809
 30
0.0
 10
324.758775
 20
151.178809
 30
0.0
 10
324.758775
 20
138.282655
 30
0.0
 10
318.758776
 20
138.282655
 30
0.0
 10
318.758776
 20
125.486501
 30
0.0
 10
324.758775
 20
125.486501
 30
0.0
 10
324.758775
 20
112.590346
 30
0.0
 10
318.758776
 20
112.590346
 30
0.0
 10
318.758776
 20
99.794193
 30
0.0
 10
324.758775
 20
99.794193
 30
0.0
 10
324.758775
 20
86.898040
 30
0.0
 10
318.758776
 20
86.898040
 30
0.0
 10
318.758776
 20
74.101887
 30
0.0
 10
324.758775
 20
74.101887
 30
0.0
 10
324.758775
 20
61.205731
 30
0.0
 10
318.758776
 20
61.205731
 30
0.0
 10
318.758776
 20
48.409578
 30
0.0
 10
324.758775
 20
48.409578
 30
0.0
 10
324.758775
 20
35.513425
 30
0.0
 10
318.758776
 20
35.513425
 30
0.0
 10
318.758776
 20
22.717269
 30
0.0
 10
324.758775
 20
22.717269
 30
0.0
 10
324.758775
 20
9.821116
 30
0.0
 10
318.758776
 20
9.821116
 30
0.0
 10
318.758776
 20
2.999963
 30
0.0
 10
312.355205
 20
2.999963
 30
0.0
 10
312.355205
 20
-3.000036
 30
0.0
 10
299.876633
 20
-3.000036
 30
0.0
 10
299.876633
 20
2.999963
 30
0.0
 10
287.498062
 20
2.999963
 30
0.0
 10
287.498062
 20
-3.000036
 30
0.0
 10
275.019491
 20
-3.000036
 30
0.0
 10
275.019491
 20
2.999963
 30
0.0
 10
262.640919
 20
2.999963
 30
0.0
 10
262.640919
 20
-3.000036
 30
0.0
 10
250.162348
 20
-3.000036
 30
0.0
 10
250.162348
 20
2.999963
 30
0.0
 10
243.758776
 20
2.999963
 30
0.0
 10
243.758776
 20
9.821116
 30
0.0
 10
237.758777
 20
9.821116
 30
0.0
 10
237.758777
 20
22.717269
 30
0.0
 10
243.758776
 20
22.717269
 30
0.0
 10
243.758776
 20
35.513425
 30
0.0
 10
237.758777
 20
35.513425
 30
0.0
 10
237.758777
 20
48.409578
 30
0.0
 10
243.758776
 20
48.409578
 30
0.0
 10
243.758776
 20
61.205731
 30
0.0
 10
237.758777
 20
61.205731
 30
0.0
 10
237.758777
 20
74.101887
 30
0.0
 10
243.758776
 20
74.101887
 30
0.0
 10
243.758776
 20
86.898040
 30
0.0
 10
237.758777
 20
86.898040
 30
0.0
 10
237.758777
 20
99.794193
 30
0.0
 10
243.758776
 20
99.794193
 30
0.0
 10
243.758776
 20
112.590346
 30
0.0
 10
237.758777
 20
112.590346
 30
0.0
 10
237.758777
 20
125.486501
 30
0.0
 10
243.758776
 20
125.486501
 30
0.0
 10
243.758776
 20
138.282655
 30
0.0
 10
237.758777
 20
138.282655
 30
0.0
 10
237.758777
 20
151.178809
 30
0.0
 10
243.758776
 20
151.178809
 30
0.0
 10
243.758776
 20
157.999963
 30
0.0
 10
250.162348
 20
157.999963
 30
0.0
 10
250.162348
 20
163.999962
 30
0.0
 10
262.640919
 20
163.999962
 30
0.0
 10
262.640919
 20
157.999963
 30
0.0
 10
275.019491
 20
157.999963
 30
0.0
 10
275.019491
 20
163.999962
 30
0.0
 10
287.498062
 20
163.999962
 30
0.0
 10
287.498062
 20
157.999963
 30
0.0
 10
299.876633
 20
157.999963
 30
0.0
 10
299.876633
 20
163.999962
 30
0.0
 10
312.355205
 20
163.999962
 30
0.0
 10
312.355205
 20
157.999963
 30
0.0
 10
318.758776
 20
157.999963
 30
0.0
  0
LWPOLYLINE
  5
19c
100
AcDbEntity
  8
newlayer
 62
7
100
AcDbPolyline
 90
53
 70
0
 10
421.484467
 20
180.041993
 30
0.0
 10
434.509466
 20
180.041993
 30
0.0
 10
434.509466
 20
174.041994
 30
0.0
 10
450.000000
 20
174.041994
 30
0.0
 10
450.000000
 20
172.041989
 30
0.0
 10
509.999999
 20
172.041989
 30
0.0
 10
509.999999
 20
174.041994
 30
0.0
 10
525.459472
 20
174.041994
 30
0.0
 10
525.459472
 20
180.041993
 30
0.0
 10
538.484479
 20
180.041993
 30
0.0
 10
538.484479
 20
167.588424
 30
0.0
 10
532.484463
 20
167.588424
 30
0.0
 10
532.484463
 20
155.209852
 30
0.0
 10
538.484479
 20
155.209852
 30
0.0
 10
538.484479
 20
142.731281
 30
0.0
 10
532.484463
 20
142.731281
 30
0.0
 10
532.484463
 20
130.352710
 30
0.0
 10
538.484479
 20
130.352710
 30
0.0
 10
538.484479
 20
117.874138
 30
0.0
 10
532.484463
 20
117.874138
 30
0.0
 10
532.484463
 20
105.495567
 30
0.0
 10
538.484479
 20
105.495567
 30
0.0
 10
538.484479
 20
93.041995
 30
0.0
 10
525.459472
 20
93.041995
 30
0.0
 10
525.459472
 20
99.041994
 30
0.0
 10
512.509465
 20
99.041994
 30
0.0
 10
512.509465
 20
93.041995
 30
0.0
 10
499.459467
 20
93.041995
 30
0.0
 10
499.459467
 20
99.041994
 30
0.0
 10
486.509466
 20
99.041994
 30
0.0
 10
486.509466
 20
93.041995
 30
0.0
 10
473.459466
 20
93.041995
 30
0.0
 10
473.459466
 20
99.041994
 30
0.0
 10
460.509465
 20
99.041994
 30
0.0
 10
460.509465
 20
93.041995
 30
0.0
 10
447.459467
 20
93.041995
 30
0.0
 10
447.459467
 20
99.041994
 30
0.0
 10
434.509466
 20
99.041994
 30
0.0
 10
434.509466
 20
93.041995
 30
0.0
 10
421.484467
 20
93.041995
 30
0.0
 10
421.484467
 20
105.495567
 30
0.0
 10
427.484467
 20
105.495567
 30
0.0
 10
427.484467
 20
117.874138
 30
0.0
 10
421.484467
 20
117.874138
 30
0.0
 10
421.484467
 20
130.352710
 30
0.0
 10
427.484467
 20
130.352710
 30
0.0
 10
427.484467
 20
142.731281
 30
0.0
 10
421.484467
 20
142.731281
 30
0.0
 10
421.484467
 20
155.209852
 30
0.0
 10
427.484467
 20
155.209852
 30
0.0
 10
427.484467
 20
167.588424
 30
0.0
 10
421.484467
 20
167.588424
 30
0.0
 10
421.484467
 20
180.041993
 30
0.0
  0
LWPOLYLINE
  5
19d
100
AcDbEntity
  8
newlayer
 62
7
100
AcDbPolyline
 90
77
 70
0
 10
334.097150
 20
2.999966
 30
0.0
 10
334.097150
 20
9.821108
 30
0.0
 10
328.097151
 20
9.821108
 30
0.0
 10
328.097151
 20
22.717252
 30
0.0
 10
334.097150
 20
22.717252
 30
0.0
 10
334.097150
 20
35.513405
 30
0.0
 10
328.097151
 20
35.513405
 30
0.0
 10
328.097151
 20
48.409578
 30
0.0
 10
334.097150
 20
48.409578
 30
0.0
 10
334.097150
 20
61.205731
 30
0.0
 10
328.097151
 20
61.205731
 30
0.0
 10
328.097151
 20
74.101875
 30
0.0
 10
334.097150
 20
74.101875
 30
0.0
 10
334.097150
 20
86.898028
 30
0.0
 10
328.097151
 20
86.898028
 30
0.0
 10
328.097151
 20
99.794201
 30
0.0
 10
334.097150
 20
99.794201
 30
0.0
 10
334.097150
 20
112.590354
 30
0.0
 10
328.097151
 20
112.590354
 30
0.0
 10
328.097151
 20
125.486499
 30
0.0
 10
334.097150
 20
125.486499
 30
0.0
 10
334.097150
 20
138.282652
 30
0.0
 10
328.097151
 20
138.282652
 30
0.0
 10
328.097151
 20
151.178796
 30
0.0
 10
334.097150
 20
151.178796
 30
0.0
 10
334.097150
 20
157.999966
 30
0.0
 10
340.500722
 20
157.999966
 30
0.0
 10
340.500722
 20
163.999954
 30
0.0
 10
352.979293
 20
163.999954
 30
0.0
 10
352.979293
 20
157.999966
 30
0.0
 10
365.357864
 20
157.999966
 30
0.0
 10
365.357864
 20
163.999954
 30
0.0
 10
377.836436
 20
163.999954
 30
0.0
 10
377.836436
 20
157.999966
 30
0.0
 10
390.215007
 20
157.999966
 30
0.0
 10
390.215007
 20
163.999954
 30
0.0
 10
402.693578
 20
163.999954
 30
0.0
 10
402.693578
 20
157.999966
 30
0.0
 10
409.097150
 20
157.999966
 30
0.0
 10
409.097150
 20
151.178796
 30
0.0
 10
415.097149
 20
151.178796
 30
0.0
 10
415.097149
 20
138.282652
 30
0.0
 10
409.097150
 20
138.282652
 30
0.0
 10
409.097150
 20
125.486499
 30
0.0
 10
415.097149
 20
125.486499
 30
0.0
 10
415.097149
 20
112.590354
 30
0.0
 10
409.097150
 20
112.590354
 30
0.0
 10
409.097150
 20
99.794201
 30
0.0
 10
415.097149
 20
99.794201
 30
0.0
 10
415.097149
 20
86.898028
 30
0.0
 10
409.097150
 20
86.898028
 30
0.0
 10
409.097150
 20
74.101875
 30
0.0
 10
415.097149
 20
74.101875
 30
0.0
 10
415.097149
 20
61.205731
 30
0.0
 10
409.097150
 20
61.205731
 30
0.0
 10
409.097150
 20
48.409578
 30
0.0
 10
415.097149
 20
48.409578
 30
0.0
 10
415.097149
 20
35.513405
 30
0.0
 10
409.097150
 20
35.513405
 30
0.0
 10
409.097150
 20
22.717252
 30
0.0
 10
415.097149
 20
22.717252
 30
0.0
 10
415.097149
 20
9.821108
 30
0.0
 10
409.097150
 20
9.821108
 30
0.0
 10
409.097150
 20
2.999966
 30
0.0
 10
402.693578
 20
2.999966
 30
0.0
 10
402.693578
 20
-3.000050
 30
0.0
 10
390.215007
 20
-3.000050
 30
0.0
 10
390.215007
 20
2.999966
 30
0.0
 10
377.836436
 20
2.999966
 30
0.0
 10
377.836436
 20
-3.000050
 30
0.0
 10
365.357864
 20
-3.000050
 30
0.0
 10
365.357864
 20
2.999966
 30
0.0
 10
352.979293
 20
2.999966
 30
0.0
 10
352.979293
 20
-3.000050
 30
0.0
 10
340.500722
 20
-3.000050
 30
0.0
 10
340.500722
 20
2.999966
 30
0.0
 10
334.097150
 20
2.999966
 30
0.0
  0
LWPOLYLINE
  5
19e
100
AcDbEntity
  8
newlayer
 62
7
100
AcDbPolyline
 90
61
 70
0
 10
421.153562
 20
89.241630
 30
0.0
 10
434.178569
 20
89.241630
 30
0.0
 10
434.178569
 20
76.241995
 30
0.0
 10
447.128561
 20
76.241995
 30
0.0
 10
447.128561
 20
89.241630
 30
0.0
 10
460.178545
 20
89.241630
 30
0.0
 10
460.178545
 20
83.241614
 30
0.0
 10
473.128566
 20
83.241614
 30
0.0
 10
473.128566
 20
89.241630
 30
0.0
 10
486.178550
 20
89.241630
 30
0.0
 10
486.178550
 20
83.241614
 30
0.0
 10
499.128542
 20
83.241614
 30
0.0
 10
499.128542
 20
89.241630
 30
0.0
 10
512.178554
 20
89.241630
 30
0.0
 10
512.178554
 20
83.241614
 30
0.0
 10
525.128546
 20
83.241614
 30
0.0
 10
525.128546
 20
89.241630
 30
0.0
 10
538.153554
 20
89.241630
 30
0.0
 10
538.153554
 20
76.788038
 30
0.0
 10
532.153566
 20
76.788038
 30
0.0
 10
532.153566
 20
64.409489
 30
0.0
 10
538.153554
 20
64.409489
 30
0.0
 10
538.153554
 20
51.930921
 30
0.0
 10
532.153566
 20
51.930921
 30
0.0
 10
532.153566
 20
39.552344
 30
0.0
 10
538.153554
 20
39.552344
 30
0.0
 10
538.153554
 20
27.073775
 30
0.0
 10
532.153566
 20
27.073775
 30
0.0
 10
532.153566
 20
14.695198
 30
0.0
 10
538.153554
 20
14.695198
 30
0.0
 10
538.153554
 20
2.241635
 30
0.0
 10
525.128546
 20
2.241635
 30
0.0
 10
525.128546
 20
8.241623
 30
0.0
 10
512.178554
 20
8.241623
 30
0.0
 10
512.178554
 20
2.241635
 30
0.0
 10
499.128542
 20
2.241635
 30
0.0
 10
499.128542
 20
8.241623
 30
0.0
 10
486.178550
 20
8.241623
 30
0.0
 10
486.178550
 20
2.241635
 30
0.0
 10
473.128566
 20
2.241635
 30
0.0
 10
473.128566
 20
8.241623
 30
0.0
 10
460.178545
 20
8.241623
 30
0.0
 10
460.178545
 20
2.241635
 30
0.0
 10
447.128561
 20
2.241635
 30
0.0
 10
447.128561
 20
8.241623
 30
0.0
 10
434.178569
 20
8.241623
 30
0.0
 10
434.178569
 20
2.241635
 30
0.0
 10
421.153562
 20
2.241635
 30
0.0
 10
421.153562
 20
14.695198
 30
0.0
 10
427.153550
 20
14.695198
 30
0.0
 10
427.153550
 20
27.073775
 30
0.0
 10
421.153562
 20
27.073775
 30
0.0
 10
421.153562
 20
39.552344
 30
0.0
 10
427.153550
 20
39.552344
 30
0.0
 10
427.153550
 20
51.930921
 30
0.0
 10
421.153562
 20
51.930921
 30
0.0
 10
421.153562
 20
64.409489
 30
0.0
 10
427.153550
 20
64.409489
 30
0.0
 10
427.153550
 20
76.788038
 30
0.0
 10
421.153562
 20
76.788038
 30
0.0
 10
421.153562
 20
89.241630
 30
0.0
  0
LWPOLYLINE
  5
19f
100
AcDbEntity
  8
newlayer
 62
7
100
AcDbPolyline
 90
85
 70
0
 10
117.644441
 20
157.999963
 30
0.0
 10
130.619438
 20
157.999963
 30
0.0
 10
130.619438
 20
163.999962
 30
0.0
 10
143.669439
 20
163.999962
 30
0.0
 10
143.669439
 20
157.999963
 30
0.0
 10
156.619440
 20
157.999963
 30
0.0
 10
156.619440
 20
163.999962
 30
0.0
 10
169.669440
 20
163.999962
 30
0.0
 10
169.669440
 20
157.999963
 30
0.0
 10
182.619438
 20
157.999963
 30
0.0
 10
182.619438
 20
163.999962
 30
0.0
 10
195.669439
 20
163.999962
 30
0.0
 10
195.669439
 20
157.999963
 30
0.0
 10
208.619440
 20
157.999963
 30
0.0
 10
208.619440
 20
163.999962
 30
0.0
 10
221.669427
 20
163.999962
 30
0.0
 10
221.669427
 20
157.999963
 30
0.0
 10
234.644452
 20
157.999963
 30
0.0
 10
234.644452
 20
151.128808
 30
0.0
 10
228.644436
 20
151.128808
 30
0.0
 10
228.644436
 20
138.332656
 30
0.0
 10
234.644452
 20
138.332656
 30
0.0
 10
234.644452
 20
125.436500
 30
0.0
 10
228.644436
 20
125.436500
 30
0.0
 10
228.644436
 20
112.640347
 30
0.0
 10
234.644452
 20
112.640347
 30
0.0
 10
234.644452
 20
99.744194
 30
0.0
 10
228.644436
 20
99.744194
 30
0.0
 10
228.644436
 20
86.948038
 30
0.0
 10
234.644452
 20
86.948038
 30
0.0
 10
234.644452
 20
74.051885
 30
0.0
 10
228.644436
 20
74.051885
 30
0.0
 10
228.644436
 20
61.255732
 30
0.0
 10
234.644452
 20
61.255732
 30
0.0
 10
234.644452
 20
48.359576
 30
0.0
 10
228.644436
 20
48.359576
 30
0.0
 10
228.644436
 20
35.563423
 30
0.0
 10
234.644452
 20
35.563423
 30
0.0
 10
234.644452
 20
22.667270
 30
0.0
 10
228.644436
 20
22.667270
 30
0.0
 10
228.644436
 20
9.871117
 30
0.0
 10
234.644452
 20
9.871117
 30
0.0
 10
234.644452
 20
2.999963
 30
0.0
 10
221.669427
 20
2.999963
 30
0.0
 10
221.669427
 20
-3.000036
 30
0.0
 10
208.619440
 20
-3.000036
 30
0.0
 10
208.619440
 20
2.999963
 30
0.0
 10
195.669439
 20
2.999963
 30
0.0
 10
195.669439
 20
-3.000036
 30
0.0
 10
182.619438
 20
-3.000036
 30
0.0
 10
182.619438
 20
2.999963
 30
0.0
 10
169.669440
 20
2.999963
 30
0.0
 10
169.669440
 20
-3.000036
 30
0.0
 10
156.619440
 20
-3.000036
 30
0.0
 10
156.619440
 20
2.999963
 30
0.0
 10
143.669439
 20
2.999963
 30
0.0
 10
143.669439
 20
-3.000036
 30
0.0
 10
130.619438
 20
-3.000036
 30
0.0
 10
130.619438
 20
2.999963
 30
0.0
 10
117.644441
 20
2.999963
 30
0.0
 10
117.644441
 20
9.871117
 30
0.0
 10
123.644440
 20
9.871117
 30
0.0
 10
123.644440
 20
22.667270
 30
0.0
 10
117.644441
 20
22.667270
 30
0.0
 10
117.644441
 20
35.563423
 30
0.0
 10
123.644440
 20
35.563423
 30
0.0
 10
123.644440
 20
48.359576
 30
0.0
 10
117.644441
 20
48.359576
 30
0.0
 10
117.644441
 20
61.255732
 30
0.0
 10
123.644440
 20
61.255732
 30
0.0
 10
123.644440
 20
74.051885
 30
0.0
 10
117.644441
 20
74.051885
 30
0.0
 10
117.644441
 20
86.948038
 30
0.0
 10
123.644440
 20
86.948038
 30
0.0
 10
123.644440
 20
99.744194
 30
0.0
 10
117.644441
 20
99.744194
 30
0.0
 10
117.644441
 20
112.640347
 30
0.0
 10
123.644440
 20
112.640347
 30
0.0
 10
123.644440
 20
125.436500
 30
0.0
 10
117.644441
 20
125.436500
 30
0.0
 10
117.644441
 20
138.332656
 30
0.0
 10
123.644440
 20
138.332656
 30
0.0
 10
123.644440
 20
151.128808
 30
0.0
 10
117.644441
 20
151.128808
 30
0.0
 10
117.644441
 20
157.999963
 30
0.0
  0
LWPOLYLINE
  5
1a0
100
AcDbEntity
  8
newlayer
 62
7
100
AcDbPolyline
 90
14
 70
0
 10
243.858999
 20
129.796258
 30
0.0
 10
251.082138
 20
129.796258
 30
0.0
 10
251.082138
 20
128.649730
 30
0.0
 10
253.278169
 20
128.649730
 30
0.0
 10
253.278169
 20
129.796258
 30
0.0
 10
254.856863
 20
129.796258
 30
0.0
 10
254.856863
 20
132.803674
 30
0.0
 10
253.278169
 20
132.803674
 30
0.0
 10
253.278169
 20
133.950202
 30
0.0
 10
251.082138
 20
133.950202
 30
0.0
 10
251.082138
 20
132.803674
 30
0.0
 10
243.858999
 20
132.803674
 30
0.0
 10
243.858999
 20
129.796258
 30
0.0
 10
243.858999
 20
129.796258
 30
0.0
  0
LWPOLYLINE
  5
1a1
100
AcDbEntity
  8
newlayer
 62
7
100
AcDbPolyline
 90
14
 70
0
 10
243.858999
 20
28.196258
 30
0.0
 10
251.082138
 20
28.196258
 30
0.0
 10
251.082138
 20
27.049730
 30
0.0
 10
253.278169
 20
27.049730
 30
0.0
 10
253.278169
 20
28.196258
 30
0.0
 10
254.856863
 20
28.196258
 30
0.0
 10
254.856863
 20
31.203674
 30
0.0
 10
253.278169
 20
31.203674
 30
0.0
 10
253.278169
 20
32.350202
 30
0.0
 10
251.082138
 20
32.350202
 30
0.0
 10
251.082138
 20
31.203674
 30
0.0
 10
243.858999
 20
31.203674
 30
0.0
 10
243.858999
 20
28.196258
 30
0.0
 10
243.858999
 20
28.196258
 30
0.0
  0
LWPOLYLINE
  5
1a2
100
AcDbEntity
  8
newlayer
 62
7
100
AcDbPolyline
 90
14
 70
0
 10
318.658864
 20
129.796258
 30
0.0
 10
311.435725
 20
129.796258
 30
0.0
 10
311.435725
 20
128.649730
 30
0.0
 10
309.239694
 20
128.649730
 30
0.0
 10
309.239694
 20
129.796258
 30
0.0
 10
307.661000
 20
129.796258
 30
0.0
 10
307.661000
 20
132.803674
 30
0.0
 10
309.239694
 20
132.803674
 30
0.0
 10
309.239694
 20
133.950202
 30
0.0
 10
311.435725
 20
133.950202
 30
0.0
 10
311.435725
 20
132.803674
 30
0.0
 10
318.658864
 20
132.803674
 30
0.0
 10
318.658864
 20
129.796258
 30
0.0
 10
318.658864
 20
129.796258
 30
0.0
  0
LWPOLYLINE
  5
1a3
100
AcDbEntity
  8
newlayer
 62
7
100
AcDbPolyline
 90
14
 70
0
 10
318.658864
 20
28.196258
 30
0.0
 10
311.435725
 20
28.196258
 30
0.0
 10
311.435725
 20
27.049730
 30
0.0
 10
309.239694
 20
27.049730
 30
0.0
 10
309.239694
 20
28.196258
 30
0.0
 10
307.661000
 20
28.196258
 30
0.0
 10
307.661000
 20
31.203674
 30
0.0
 10
309.239694
 20
31.203674
 30
0.0
 10
309.239694
 20
32.350202
 30
0.0
 10
311.435725
 20
32.350202
 30
0.0
 10
311.435725
 20
31.203674
 30
0.0
 10
318.658864
 20
31.203674
 30
0.0
 10
318.658864
 20
28.196258
 30
0.0
 10
318.658864
 20
28.196258
 30
0.0
  0
LWPOLYLINE
  5
1a4
100
AcDbEntity
  8
newlayer
 62
7
100
AcDbPolyline
 90
14
 70
0
 10
334.197218
 20
129.796244
 30
0.0
 10
341.420357
 20
129.796244
 30
0.0
 10
341.420357
 20
128.649716
 30
0.0
 10
343.616387
 20
128.649716
 30
0.0
 10
343.616387
 20
129.796244
 30
0.0
 10
345.195082
 20
129.796244
 30
0.0
 10
345.195082
 20
132.803660
 30
0.0
 10
343.616387
 20
132.803660
 30
0.0
 10
343.616387
 20
133.950188
 30
0.0
 10
341.420357
 20
133.950188
 30
0.0
 10
341.420357
 20
132.803660
 30
0.0
 10
334.197218
 20
132.803660
 30
0.0
 10
334.197218
 20
129.796244
 30
0.0
 10
334.197218
 20
129.796244
 30
0.0
  0
LWPOLYLINE
  5
1a5
100
AcDbEntity
  8
newlayer
 62
7
100
AcDbPolyline
 90
14
 70
0
 10
334.197218
 20
28.196244
 30
0.0
 10
341.420357
 20
28.196244
 30
0.0
 10
341.420357
 20
27.049716
 30
0.0
 10
343.616387
 20
27.049716
 30
0.0
 10
343.616387
 20
28.196244
 30
0.0
 10
345.195082
 20
28.196244
 30
0.0
 10
345.195082
 20
31.203660
 30
0.0
 10
343.616387
 20
31.203660
 30
0.0
 10
343.616387
 20
32.350188
 30
0.0
 10
341.420357
 20
32.350188
 30
0.0
 10
341.420357
 20
31.203660
 30
0.0
 10
334.197218
 20
31.203660
 30
0.0
 10
334.197218
 20
28.196244
 30
0.0
 10
334.197218
 20
28.196244
 30
0.0
  0
LWPOLYLINE
  5
1a6
100
AcDbEntity
  8
newlayer
 62
7
100
AcDbPolyline
 90
14
 70
0
 10
408.997082
 20
129.796244
 30
0.0
 10
401.773943
 20
129.796244
 30
0.0
 10
401.773943
 20
128.649716
 30
0.0
 10
399.577913
 20
128.649716
 30
0.0
 10
399.577913
 20
129.796244
 30
0.0
 10
397.999218
 20
129.796244
 30
0.0
 10
397.999218
 20
132.803660
 30
0.0
 10
399.577913
 20
132.803660
 30
0.0
 10
399.577913
 20
133.950188
 30
0.0
 10
401.773943
 20
133.950188
 30
0.0
 10
401.773943
 20
132.803660
 30
0.0
 10
408.997082
 20
132.803660
 30
0.0
 10
408.997082
 20
129.796244
 30
0.0
 10
408.997082
 20
129.796244
 30
0.0
  0
SPLINE
  5
1a7
100
AcDbEntity
  8
newlayer
 62
7
100
AcDbSpline
 70
8
 71
3
 72
8
 73
4
 74
0
 40
0
 40
0
 40
0
 40
0
 40
1
 40
1
 40
1
 40
1
 10
233.286000
 20
131.299963
 30
0.0
 10
233.286000
 20
130.443919
 30
0.0
 10
232.592042
 20
129.749974
 30
0.0
 10
231.736000
 20
129.749974
 30
0.0
  0
SPLINE
  5
1a8
100
AcDbEntity
  8
newlayer
 62
7
100
AcDbSpline
 70
8
 71
3
 72
8
 73
4
 74
0
 40
0
 40
0
 40
0
 40
0
 40
1
 40
1
 40
1
 40
1
 10
231.736000
 20
129.749974
 30
0.0
 10
230.879959
 20
129.749974
 30
0.0
 10
230.185999
 20
130.443919
 30
0.0
 10
230.185999
 20
131.299963
 30
0.0
  0
SPLINE
  5
1a9
100
AcDbEntity
  8
newlayer
 62
7
100
AcDbSpline
 70
8
 71
3
 72
8
 73
4
 74
0
 40
0
 40
0
 40
0
 40
0
 40
1
 40
1
 40
1
 40
1
 10
230.185999
 20
131.299963
 30
0.0
 10
230.185999
 20
132.156006
 30
0.0
 10
230.879959
 20
132.849968
 30
0.0
 10
231.736000
 20
132.849968
 30
0.0
  0
SPLINE
  5
1aa
100
AcDbEntity
  8
newlayer
 62
7
100
AcDbSpline
 70
8
 71
3
 72
8
 73
4
 74
0
 40
0
 40
0
 40
0
 40
0
 40
1
 40
1
 40
1
 40
1
 10
231.736000
 20
132.849968
 30
0.0
 10
232.592042
 20
132.849968
 30
0.0
 10
233.286000
 20
132.156006
 30
0.0
 10
233.286000
 20
131.299963
 30
0.0
  0
LWPOLYLINE
  5
1ab
100
AcDbEntity
  8
newlayer
 62
7
100
AcDbPolyline
 90
14
 70
0
 10
408.997082
 20
28.196244
 30
0.0
 10
401.773943
 20
28.196244
 30
0.0
 10
401.773943
 20
27.049716
 30
0.0
 10
399.577913
 20
27.049716
 30
0.0
 10
399.577913
 20
28.196244
 30
0.0
 10
397.999218
 20
28.196244
 30
0.0
 10
397.999218
 20
31.203660
 30
0.0
 10
399.577913
 20
31.203660
 30
0.0
 10
399.577913
 20
32.350188
 30
0.0
 10
401.773943
 20
32.350188
 30
0.0
 10
401.773943
 20
31.203660
 30
0.0
 10
408.997082
 20
31.203660
 30
0.0
 10
408.997082
 20
28.196244
 30
0.0
 10
408.997082
 20
28.196244
 30
0.0
  0
SPLINE
  5
1ac
100
AcDbEntity
  8
newlayer
 62
7
100
AcDbSpline
 70
8
 71
3
 72
8
 73
4
 74
0
 40
0
 40
0
 40
0
 40
0
 40
1
 40
1
 40
1
 40
1
 10
233.286000
 20
29.699963
 30
0.0
 10
233.286000
 20
28.843919
 30
0.0
 10
232.592042
 20
28.149974
 30
0.0
 10
231.736000
 20
28.149974
 30
0.0
  0
SPLINE
  5
1ad
100
AcDbEntity
  8
newlayer
 62
7
100
AcDbSpline
 70
8
 71
3
 72
8
 73
4
 74
0
 40
0
 40
0
 40
0
 40
0
 40
1
 40
1
 40
1
 40
1
 10
231.736000
 20
28.149974
 30
0.0
 10
230.879959
 20
28.149974
 30
0.0
 10
230.185999
 20
28.843919
 30
0.0
 10
230.185999
 20
29.699963
 30
0.0
  0
SPLINE
  5
1ae
100
AcDbEntity
  8
newlayer
 62
7
100
AcDbSpline
 70
8
 71
3
 72
8
 73
4
 74
0
 40
0
 40
0
 40
0
 40
0
 40
1
 40
1
 40
1
 40
1
 10
230.185999
 20
29.699963
 30
0.0
 10
230.185999
 20
30.556006
 30
0.0
 10
230.879959
 20
31.249968
 30
0.0
 10
231.736000
 20
31.249968
 30
0.0
  0
SPLINE
  5
1af
100
AcDbEntity
  8
newlayer
 62
7
100
AcDbSpline
 70
8
 71
3
 72
8
 73
4
 74
0
 40
0
 40
0
 40
0
 40
0
 40
1
 40
1
 40
1
 40
1
 10
231.736000
 20
31.249968
 30
0.0
 10
232.592042
 20
31.249968
 30
0.0
 10
233.286000
 20
30.556006
 30
0.0
 10
233.286000
 20
29.699963
 30
0.0
  0
LWPOLYLINE
  5
1b0
100
AcDbEntity
  8
newlayer
 62
7
100
AcDbPolyline
 90
2
 70
1
 10
233.286000
 20
131.299963
 30
0.0
 10
233.286000
 20
131.299963
 30
0.0
  0
SPLINE
  5
1b1
100
AcDbEntity
  8
newlayer
 62
7
100
AcDbSpline
 70
8
 71
3
 72
8
 73
4
 74
0
 40
0
 40
0
 40
0
 40
0
 40
1
 40
1
 40
1
 40
1
 10
122.103001
 20
131.299963
 30
0.0
 10
122.103001
 20
130.443919
 30
0.0
 10
121.409042
 20
129.749974
 30
0.0
 10
120.553000
 20
129.749974
 30
0.0
  0
SPLINE
  5
1b2
100
AcDbEntity
  8
newlayer
 62
7
100
AcDbSpline
 70
8
 71
3
 72
8
 73
4
 74
0
 40
0
 40
0
 40
0
 40
0
 40
1
 40
1
 40
1
 40
1
 10
120.553000
 20
129.749974
 30
0.0
 10
119.696960
 20
129.749974
 30
0.0
 10
119.003000
 20
130.443919
 30
0.0
 10
119.003000
 20
131.299963
 30
0.0
  0
SPLINE
  5
1b3
100
AcDbEntity
  8
newlayer
 62
7
100
AcDbSpline
 70
8
 71
3
 72
8
 73
4
 74
0
 40
0
 40
0
 40
0
 40
0
 40
1
 40
1
 40
1
 40
1
 10
119.003000
 20
131.299963
 30
0.0
 10
119.003000
 20
132.156006
 30
0.0
 10
119.696960
 20
132.849968
 30
0.0
 10
120.553000
 20
132.849968
 30
0.0
  0
SPLINE
  5
1b4
100
AcDbEntity
  8
newlayer
 62
7
100
AcDbSpline
 70
8
 71
3
 72
8
 73
4
 74
0
 40
0
 40
0
 40
0
 40
0
 40
1
 40
1
 40
1
 40
1
 10
120.553000
 20
132.849968
 30
0.0
 10
121.409042
 20
132.849968
 30
0.0
 10
122.103001
 20
132.156006
 30
0.0
 10
122.103001
 20
131.299963
 30
0.0
  0
LWPOLYLINE
  5
1b5
100
AcDbEntity
  8
newlayer
 62
7
100
AcDbPolyline
 90
2
 70
1
 10
233.286000
 20
29.699963
 30
0.0
 10
233.286000
 20
29.699963
 30
0.0
  0
SPLINE
  5
1b6
100
AcDbEntity
  8
newlayer
 62
7
100
AcDbSpline
 70
8
 71
3
 72
8
 73
4
 74
0
 40
0
 40
0
 40
0
 40
0
 40
1
 40
1
 40
1
 40
1
 10
122.103001
 20
29.699963
 30
0.0
 10
122.103001
 20
28.843919
 30
0.0
 10
121.409042
 20
28.149974
 30
0.0
 10
120.553000
 20
28.149974
 30
0.0
  0
SPLINE
  5
1b7
100
AcDbEntity
  8
newlayer
 62
7
100
AcDbSpline
 70
8
 71
3
 72
8
 73
4
 74
0
 40
0
 40
0
 40
0
 40
0
 40
1
 40
1
 40
1
 40
1
 10
120.553000
 20
28.149974
 30
0.0
 10
119.696960
 20
28.149974
 30
0.0
 10
119.003000
 20
28.843919
 30
0.0
 10
119.003000
 20
29.699963
 30
0.0
  0
SPLINE
  5
1b8
100
AcDbEntity
  8
newlayer
 62
7
100
AcDbSpline
 70
8
 71
3
 72
8
 73
4
 74
0
 40
0
 40
0
 40
0
 40
0
 40
1
 40
1
 40
1
 40
1
 10
119.003000
 20
29.699963
 30
0.0
 10
119.003000
 20
30.556006
 30
0.0
 10
119.696960
 20
31.249968
 30
0.0
 10
120.553000
 20
31.249968
 30
0.0
  0
SPLINE
  5
1b9
100
AcDbEntity
  8
newlayer
 62
7
100
AcDbSpline
 70
8
 71
3
 72
8
 73
4
 74
0
 40
0
 40
0
 40
0
 40
0
 40
1
 40
1
 40
1
 40
1
 10
120.553000
 20
31.249968
 30
0.0
 10
121.409042
 20
31.249968
 30
0.0
 10
122.103001
 20
30.556006
 30
0.0
 10
122.103001
 20
29.699963
 30
0.0
  0
LWPOLYLINE
  5
1ba
100
AcDbEntity
  8
newlayer
 62
7
100
AcDbPolyline
 90
2
 70
1
 10
122.103001
 20
131.299963
 30
0.0
 10
122.103001
 20
131.299963
 30
0.0
  0
SPLINE
  5
1bb
100
AcDbEntity
  8
newlayer
 62
7
100
AcDbSpline
 70
8
 71
3
 72
8
 73
4
 74
0
 40
0
 40
0
 40
0
 40
0
 40
1
 40
1
 40
1
 40
1
 10
112.641506
 20
131.300005
 30
0.0
 10
112.641506
 20
130.443961
 30
0.0
 10
111.947548
 20
129.750016
 30
0.0
 10
111.091506
 20
129.750016
 30
0.0
  0
SPLINE
  5
1bc
100
AcDbEntity
  8
newlayer
 62
7
100
AcDbSpline
 70
8
 71
3
 72
8
 73
4
 74
0
 40
0
 40
0
 40
0
 40
0
 40
1
 40
1
 40
1
 40
1
 10
111.091506
 20
129.750016
 30
0.0
 10
110.235466
 20
129.750016
 30
0.0
 10
109.541506
 20
130.443961
 30
0.0
 10
109.541506
 20
131.300005
 30
0.0
  0
SPLINE
  5
1bd
100
AcDbEntity
  8
newlayer
 62
7
100
AcDbSpline
 70
8
 71
3
 72
8
 73
4
 74
0
 40
0
 40
0
 40
0
 40
0
 40
1
 40
1
 40
1
 40
1
 10
109.541506
 20
131.300005
 30
0.0
 10
109.541506
 20
132.156048
 30
0.0
 10
110.235466
 20
132.850010
 30
0.0
 10
111.091506
 20
132.850010
 30
0.0
  0
SPLINE
  5
1be
100
AcDbEntity
  8
newlayer
 62
7
100
AcDbSpline
 70
8
 71
3
 72
8
 73
4
 74
0
 40
0
 40
0
 40
0
 40
0
 40
1
 40
1
 40
1
 40
1
 10
111.091506
 20
132.850010
 30
0.0
 10
111.947548
 20
132.850010
 30
0.0
 10
112.641506
 20
132.156048
 30
0.0
 10
112.641506
 20
131.300005
 30
0.0
  0
LWPOLYLINE
  5
1bf
100
AcDbEntity
  8
newlayer
 62
7
100
AcDbPolyline
 90
2
 70
1
 10
122.103001
 20
29.699963
 30
0.0
 10
122.103001
 20
29.699963
 30
0.0
  0
SPLINE
  5
1c0
100
AcDbEntity
  8
newlayer
 62
7
100
AcDbSpline
 70
8
 71
3
 72
8
 73
4
 74
0
 40
0
 40
0
 40
0
 40
0
 40
1
 40
1
 40
1
 40
1
 10
112.641506
 20
29.700005
 30
0.0
 10
112.641506
 20
28.843961
 30
0.0
 10
111.947548
 20
28.150016
 30
0.0
 10
111.091506
 20
28.150016
 30
0.0
  0
SPLINE
  5
1c1
100
AcDbEntity
  8
newlayer
 62
7
100
AcDbSpline
 70
8
 71
3
 72
8
 73
4
 74
0
 40
0
 40
0
 40
0
 40
0
 40
1
 40
1
 40
1
 40
1
 10
111.091506
 20
28.150016
 30
0.0
 10
110.235466
 20
28.150016
 30
0.0
 10
109.541506
 20
28.843961
 30
0.0
 10
109.541506
 20
29.700005
 30
0.0
  0
SPLINE
  5
1c2
100
AcDbEntity
  8
newlayer
 62
7
100
AcDbSpline
 70
8
 71
3
 72
8
 73
4
 74
0
 40
0
 40
0
 40
0
 40
0
 40
1
 40
1
 40
1
 40
1
 10
109.541506
 20
29.700005
 30
0.0
 10
109.541506
 20
30.556048
 30
0.0
 10
110.235466
 20
31.250010
 30
0.0
 10
111.091506
 20
31.250010
 30
0.0
  0
SPLINE
  5
1c3
100
AcDbEntity
  8
newlayer
 62
7
100
AcDbSpline
 70
8
 71
3
 72
8
 73
4
 74
0
 40
0
 40
0
 40
0
 40
0
 40
1
 40
1
 40
1
 40
1
 10
111.091506
 20
31.250010
 30
0.0
 10
111.947548
 20
31.250010
 30
0.0
 10
112.641506
 20
30.556048
 30
0.0
 10
112.641506
 20
29.700005
 30
0.0
  0
LWPOLYLINE
  5
1c4
100
AcDbEntity
  8
newlayer
 62
7
100
AcDbPolyline
 90
2
 70
1
 10
112.641506
 20
131.300005
 30
0.0
 10
112.641506
 20
131.300005
 30
0.0
  0
SPLINE
  5
1c5
100
AcDbEntity
  8
newlayer
 62
7
100
AcDbSpline
 70
8
 71
3
 72
8
 73
4
 74
0
 40
0
 40
0
 40
0
 40
0
 40
1
 40
1
 40
1
 40
1
 10
1.458507
 20
131.300005
 30
0.0
 10
1.458507
 20
130.443961
 30
0.0
 10
0.764548
 20
129.750016
 30
0.0
 10
-0.091494
 20
129.750016
 30
0.0
  0
SPLINE
  5
1c6
100
AcDbEntity
  8
newlayer
 62
7
100
AcDbSpline
 70
8
 71
3
 72
8
 73
4
 74
0
 40
0
 40
0
 40
0
 40
0
 40
1
 40
1
 40
1
 40
1
 10
-0.091494
 20
129.750016
 30
0.0
 10
-0.947534
 20
129.750016
 30
0.0
 10
-1.641494
 20
130.443961
 30
0.0
 10
-1.641494
 20
131.300005
 30
0.0
  0
SPLINE
  5
1c7
100
AcDbEntity
  8
newlayer
 62
7
100
AcDbSpline
 70
8
 71
3
 72
8
 73
4
 74
0
 40
0
 40
0
 40
0
 40
0
 40
1
 40
1
 40
1
 40
1
 10
-1.641494
 20
131.300005
 30
0.0
 10
-1.641494
 20
132.156048
 30
0.0
 10
-0.947534
 20
132.850010
 30
0.0
 10
-0.091494
 20
132.850010
 30
0.0
  0
SPLINE
  5
1c8
100
AcDbEntity
  8
newlayer
 62
7
100
AcDbSpline
 70
8
 71
3
 72
8
 73
4
 74
0
 40
0
 40
0
 40
0
 40
0
 40
1
 40
1
 40
1
 40
1
 10
-0.091494
 20
132.850010
 30
0.0
 10
0.764548
 20
132.850010
 30
0.0
 10
1.458507
 20
132.156048
 30
0.0
 10
1.458507
 20
131.300005
 30
0.0
  0
LWPOLYLINE
  5
1c9
100
AcDbEntity
  8
newlayer
 62
7
100
AcDbPolyline
 90
2
 70
1
 10
112.641506
 20
29.700005
 30
0.0
 10
112.641506
 20
29.700005
 30
0.0
  0
SPLINE
  5
1ca
100
AcDbEntity
  8
newlayer
 62
7
100
AcDbSpline
 70
8
 71
3
 72
8
 73
4
 74
0
 40
0
 40
0
 40
0
 40
0
 40
1
 40
1
 40
1
 40
1
 10
1.458507
 20
29.700005
 30
0.0
 10
1.458507
 20
28.843961
 30
0.0
 10
0.764548
 20
28.150016
 30
0.0
 10
-0.091494
 20
28.150016
 30
0.0
  0
SPLINE
  5
1cb
100
AcDbEntity
  8
newlayer
 62
7
100
AcDbSpline
 70
8
 71
3
 72
8
 73
4
 74
0
 40
0
 40
0
 40
0
 40
0
 40
1
 40
1
 40
1
 40
1
 10
-0.091494
 20
28.150016
 30
0.0
 10
-0.947534
 20
28.150016
 30
0.0
 10
-1.641494
 20
28.843961
 30
0.0
 10
-1.641494
 20
29.700005
 30
0.0
  0
SPLINE
  5
1cc
100
AcDbEntity
  8
newlayer
 62
7
100
AcDbSpline
 70
8
 71
3
 72
8
 73
4
 74
0
 40
0
 40
0
 40
0
 40
0
 40
1
 40
1
 40
1
 40
1
 10
-1.641494
 20
29.700005
 30
0.0
 10
-1.641494
 20
30.556048
 30
0.0
 10
-0.947534
 20
31.250010
 30
0.0
 10
-0.091494
 20
31.250010
 30
0.0
  0
SPLINE
  5
1cd
100
AcDbEntity
  8
newlayer
 62
7
100
AcDbSpline
 70
8
 71
3
 72
8
 73
4
 74
0
 40
0
 40
0
 40
0
 40
0
 40
1
 40
1
 40
1
 40
1
 10
-0.091494
 20
31.250010
 30
0.0
 10
0.764548
 20
31.250010
 30
0.0
 10
1.458507
 20
30.556048
 30
0.0
 10
1.458507
 20
29.700005
 30
0.0
  0
LWPOLYLINE
  5
1ce
100
AcDbEntity
  8
newlayer
 62
7
100
AcDbPolyline
 90
2
 70
1
 10
1.458507
 20
131.300005
 30
0.0
 10
1.458507
 20
131.300005
 30
0.0
  0
LWPOLYLINE
  5
1cf
100
AcDbEntity
  8
newlayer
 62
7
100
AcDbPolyline
 90
2
 70
1
 10
1.458507
 20
29.700005
 30
0.0
 10
1.458507
 20
29.700005
 30
0.0
  0
LWPOLYLINE
  5
1d0
100
AcDbEntity
  8
newlayer
 62
7
100
AcDbPolyline
 90
7
 70
1
 10
80.748770
 20
106.475272
 30
0.0
 10
55.500008
 20
106.475272
 30
0.0
 10
30.251245
 20
106.475272
 30
0.0
 10
42.875626
 20
128.341342
 30
0.0
 10
55.500008
 20
150.207412
 30
0.0
 10
68.124389
 20
128.341342
 30
0.0
 10
80.748770
 20
106.475272
 30
0.0
  0
LWPOLYLINE
  5
1d1
100
AcDbEntity
  8
newlayer
 62
7
100
AcDbPolyline
 90
2
 70
0
 10
15.988896
 20
97.171087
 30
0.0
 10
15.988896
 20
91.244420
 30
0.0
  0
LWPOLYLINE
  5
1d2
100
AcDbEntity
  8
newlayer
 62
7
100
AcDbPolyline
 90
2
 70
0
 10
18.246674
 20
97.171087
 30
0.0
 10
18.246674
 20
91.244420
 30
0.0
  0
LWPOLYLINE
  5
1d3
100
AcDbEntity
  8
newlayer
 62
7
100
AcDbPolyline
 90
2
 70
0
 10
18.246674
 20
97.171087
 30
0.0
 10
22.197785
 20
91.244420
 30
0.0
  0
LWPOLYLINE
  5
1d4
100
AcDbEntity
  8
newlayer
 62
7
100
AcDbPolyline
 90
2
 70
0
 10
22.197785
 20
97.171087
 30
0.0
 10
22.197785
 20
91.244420
 30
0.0
  0
LWPOLYLINE
  5
1d5
100
AcDbEntity
  8
newlayer
 62
7
100
AcDbPolyline
 90
20
 70
0
 10
28.124451
 20
96.324420
 30
0.0
 10
27.560007
 20
96.888864
 30
0.0
 10
26.713340
 20
97.171087
 30
0.0
 10
25.584451
 20
97.171087
 30
0.0
 10
24.737785
 20
96.888864
 30
0.0
 10
24.173340
 20
96.324420
 30
0.0
 10
24.173340
 20
95.759976
 30
0.0
 10
24.455563
 20
95.195531
 30
0.0
 10
24.737785
 20
94.913309
 30
0.0
 10
25.302229
 20
94.631087
 30
0.0
 10
26.995563
 20
94.066642
 30
0.0
 10
27.560007
 20
93.784420
 30
0.0
 10
27.842229
 20
93.502198
 30
0.0
 10
28.124451
 20
92.937753
 30
0.0
 10
28.124451
 20
92.091087
 30
0.0
 10
27.560007
 20
91.526642
 30
0.0
 10
26.713340
 20
91.244420
 30
0.0
 10
25.584451
 20
91.244420
 30
0.0
 10
24.737785
 20
91.526642
 30
0.0
 10
24.173340
 20
92.091087
 30
0.0
  0
LWPOLYLINE
  5
1d6
100
AcDbEntity
  8
newlayer
 62
7
100
AcDbPolyline
 90
2
 70
0
 10
30.100007
 20
97.171087
 30
0.0
 10
30.100007
 20
91.244420
 30
0.0
  0
LWPOLYLINE
  5
1d7
100
AcDbEntity
  8
newlayer
 62
7
100
AcDbPolyline
 90
2
 70
0
 10
30.100007
 20
97.171087
 30
0.0
 10
33.768896
 20
97.171087
 30
0.0
  0
LWPOLYLINE
  5
1d8
100
AcDbEntity
  8
newlayer
 62
7
100
AcDbPolyline
 90
2
 70
0
 10
30.100007
 20
94.348864
 30
0.0
 10
32.357785
 20
94.348864
 30
0.0
  0
LWPOLYLINE
  5
1d9
100
AcDbEntity
  8
newlayer
 62
7
100
AcDbPolyline
 90
2
 70
0
 10
30.100007
 20
91.244420
 30
0.0
 10
33.768896
 20
91.244420
 30
0.0
  0
LWPOLYLINE
  5
1da
100
AcDbEntity
  8
newlayer
 62
7
100
AcDbPolyline
 90
2
 70
0
 10
35.462229
 20
97.171087
 30
0.0
 10
35.462229
 20
91.244420
 30
0.0
  0
LWPOLYLINE
  5
1db
100
AcDbEntity
  8
newlayer
 62
7
100
AcDbPolyline
 90
10
 70
0
 10
35.462229
 20
97.171087
 30
0.0
 10
38.002229
 20
97.171087
 30
0.0
 10
38.848896
 20
96.888864
 30
0.0
 10
39.131118
 20
96.606642
 30
0.0
 10
39.413340
 20
96.042198
 30
0.0
 10
39.413340
 20
95.477753
 30
0.0
 10
39.131118
 20
94.913309
 30
0.0
 10
38.848896
 20
94.631087
 30
0.0
 10
38.002229
 20
94.348864
 30
0.0
 10
35.462229
 20
94.348864
 30
0.0
  0
LWPOLYLINE
  5
1dc
100
AcDbEntity
  8
newlayer
 62
7
100
AcDbPolyline
 90
2
 70
0
 10
37.437785
 20
94.348864
 30
0.0
 10
39.413340
 20
91.244420
 30
0.0
  0
LWPOLYLINE
  5
1dd
100
AcDbEntity
  8
newlayer
 62
7
100
AcDbPolyline
 90
2
 70
0
 10
42.517785
 20
97.171087
 30
0.0
 10
42.517785
 20
91.244420
 30
0.0
  0
LWPOLYLINE
  5
1de
100
AcDbEntity
  8
newlayer
 62
7
100
AcDbPolyline
 90
2
 70
0
 10
40.542229
 20
97.171087
 30
0.0
 10
44.493340
 20
97.171087
 30
0.0
  0
LWPOLYLINE
  5
1df
100
AcDbEntity
  8
newlayer
 62
7
100
AcDbPolyline
 90
2
 70
0
 10
50.420007
 20
97.171087
 30
0.0
 10
50.420007
 20
91.244420
 30
0.0
  0
LWPOLYLINE
  5
1e0
100
AcDbEntity
  8
newlayer
 62
7
100
AcDbPolyline
 90
10
 70
0
 10
50.420007
 20
97.171087
 30
0.0
 10
52.960007
 20
97.171087
 30
0.0
 10
53.806674
 20
96.888864
 30
0.0
 10
54.088896
 20
96.606642
 30
0.0
 10
54.371118
 20
96.042198
 30
0.0
 10
54.371118
 20
95.477753
 30
0.0
 10
54.088896
 20
94.913309
 30
0.0
 10
53.806674
 20
94.631087
 30
0.0
 10
52.960007
 20
94.348864
 30
0.0
 10
50.420007
 20
94.348864
 30
0.0
  0
LWPOLYLINE
  5
1e1
100
AcDbEntity
  8
newlayer
 62
7
100
AcDbPolyline
 90
2
 70
0
 10
52.395563
 20
94.348864
 30
0.0
 10
54.371118
 20
91.244420
 30
0.0
  0
LWPOLYLINE
  5
1e2
100
AcDbEntity
  8
newlayer
 62
7
100
AcDbPolyline
 90
2
 70
0
 10
56.346674
 20
97.171087
 30
0.0
 10
56.346674
 20
91.244420
 30
0.0
  0
LWPOLYLINE
  5
1e3
100
AcDbEntity
  8
newlayer
 62
7
100
AcDbPolyline
 90
2
 70
0
 10
56.346674
 20
97.171087
 30
0.0
 10
60.015563
 20
97.171087
 30
0.0
  0
LWPOLYLINE
  5
1e4
100
AcDbEntity
  8
newlayer
 62
7
100
AcDbPolyline
 90
2
 70
0
 10
56.346674
 20
94.348864
 30
0.0
 10
58.604451
 20
94.348864
 30
0.0
  0
LWPOLYLINE
  5
1e5
100
AcDbEntity
  8
newlayer
 62
7
100
AcDbPolyline
 90
2
 70
0
 10
61.426674
 20
97.171087
 30
0.0
 10
61.426674
 20
91.244420
 30
0.0
  0
LWPOLYLINE
  5
1e6
100
AcDbEntity
  8
newlayer
 62
7
100
AcDbPolyline
 90
2
 70
0
 10
63.684451
 20
97.171087
 30
0.0
 10
63.684451
 20
91.244420
 30
0.0
  0
LWPOLYLINE
  5
1e7
100
AcDbEntity
  8
newlayer
 62
7
100
AcDbPolyline
 90
12
 70
0
 10
63.684451
 20
97.171087
 30
0.0
 10
65.660007
 20
97.171087
 30
0.0
 10
66.506674
 20
96.888864
 30
0.0
 10
67.071118
 20
96.324420
 30
0.0
 10
67.353340
 20
95.759976
 30
0.0
 10
67.635563
 20
94.913309
 30
0.0
 10
67.635563
 20
93.502198
 30
0.0
 10
67.353340
 20
92.655531
 30
0.0
 10
67.071118
 20
92.091087
 30
0.0
 10
66.506674
 20
91.526642
 30
0.0
 10
65.660007
 20
91.244420
 30
0.0
 10
63.684451
 20
91.244420
 30
0.0
  0
LWPOLYLINE
  5
1e8
100
AcDbEntity
  8
newlayer
 62
7
100
AcDbPolyline
 90
18
 70
0
 10
78.077785
 20
95.759976
 30
0.0
 10
77.795563
 20
96.324420
 30
0.0
 10
77.231118
 20
96.888864
 30
0.0
 10
76.666674
 20
97.171087
 30
0.0
 10
75.537785
 20
97.171087
 30
0.0
 10
74.973340
 20
96.888864
 30
0.0
 10
74.408896
 20
96.324420
 30
0.0
 10
74.126674
 20
95.759976
 30
0.0
 10
73.844451
 20
94.913309
 30
0.0
 10
73.844451
 20
93.502198
 30
0.0
 10
74.126674
 20
92.655531
 30
0.0
 10
74.408896
 20
92.091087
 30
0.0
 10
74.973340
 20
91.526642
 30
0.0
 10
75.537785
 20
91.244420
 30
0.0
 10
76.666674
 20
91.244420
 30
0.0
 10
77.231118
 20
91.526642
 30
0.0
 10
77.795563
 20
92.091087
 30
0.0
 10
78.077785
 20
92.655531
 30
0.0
  0
LWPOLYLINE
  5
1e9
100
AcDbEntity
  8
newlayer
 62
7
100
AcDbPolyline
 90
2
 70
0
 10
81.464451
 20
97.171087
 30
0.0
 10
79.206674
 20
91.244420
 30
0.0
  0
LWPOLYLINE
  5
1ea
100
AcDbEntity
  8
newlayer
 62
7
100
AcDbPolyline
 90
2
 70
0
 10
81.464451
 20
97.171087
 30
0.0
 10
83.722229
 20
91.244420
 30
0.0
  0
LWPOLYLINE
  5
1eb
100
AcDbEntity
  8
newlayer
 62
7
100
AcDbPolyline
 90
2
 70
0
 10
80.053340
 20
93.219976
 30
0.0
 10
82.875563
 20
93.219976
 30
0.0
  0
LWPOLYLINE
  5
1ec
100
AcDbEntity
  8
newlayer
 62
7
100
AcDbPolyline
 90
2
 70
0
 10
85.133340
 20
97.171087
 30
0.0
 10
85.133340
 20
91.244420
 30
0.0
  0
LWPOLYLINE
  5
1ed
100
AcDbEntity
  8
newlayer
 62
7
100
AcDbPolyline
 90
10
 70
0
 10
85.133340
 20
97.171087
 30
0.0
 10
87.673340
 20
97.171087
 30
0.0
 10
88.520007
 20
96.888864
 30
0.0
 10
88.802229
 20
96.606642
 30
0.0
 10
89.084451
 20
96.042198
 30
0.0
 10
89.084451
 20
95.477753
 30
0.0
 10
88.802229
 20
94.913309
 30
0.0
 10
88.520007
 20
94.631087
 30
0.0
 10
87.673340
 20
94.348864
 30
0.0
 10
85.133340
 20
94.348864
 30
0.0
  0
LWPOLYLINE
  5
1ee
100
AcDbEntity
  8
newlayer
 62
7
100
AcDbPolyline
 90
2
 70
0
 10
87.108896
 20
94.348864
 30
0.0
 10
89.084451
 20
91.244420
 30
0.0
  0
LWPOLYLINE
  5
1ef
100
AcDbEntity
  8
newlayer
 62
7
100
AcDbPolyline
 90
2
 70
0
 10
91.060007
 20
97.171087
 30
0.0
 10
91.060007
 20
91.244420
 30
0.0
  0
LWPOLYLINE
  5
1f0
100
AcDbEntity
  8
newlayer
 62
7
100
AcDbPolyline
 90
12
 70
0
 10
91.060007
 20
97.171087
 30
0.0
 10
93.035563
 20
97.171087
 30
0.0
 10
93.882229
 20
96.888864
 30
0.0
 10
94.446674
 20
96.324420
 30
0.0
 10
94.728896
 20
95.759976
 30
0.0
 10
95.011118
 20
94.913309
 30
0.0
 10
95.011118
 20
93.502198
 30
0.0
 10
94.728896
 20
92.655531
 30
0.0
 10
94.446674
 20
92.091087
 30
0.0
 10
93.882229
 20
91.526642
 30
0.0
 10
93.035563
 20
91.244420
 30
0.0
 10
91.060007
 20
91.244420
 30
0.0
  0
ENDSEC
  0
SECTION
  2
OBJECTS
  0
DICTIONARY
  5
C
330
0
100
AcDbDictionary
  3
ACAD_GROUP
350
D
  3
ACAD_MLINESTYLE
350
17
  0
DICTIONARY
  5
D
330
C
100
AcDbDictionary
  0
DICTIONARY
  5
1A
330
C
100
AcDbDictionary
  0
DICTIONARY
  5
17
330
C
100
AcDbDictionary
  3
STANDARD
350
18
  0
DICTIONARY
  5
19
330
C
100
AcDbDictionary
  0
ENDSEC
  0
EOF
